<svg width="1280" height="301" viewBox="0 0 1280 301" fill="none" xmlns="http://www.w3.org/2000/svg">
<g style="mix-blend-mode:soft-light" opacity="0.2" clip-path="url(#clip0_938_7927)">
<path opacity="0.6" d="M328.049 229.979L387.028 195.955L446.007 229.979V298.027L387.028 332.012L328.049 298.027V229.979Z" fill="white" fill-opacity="0.25"/>
<path opacity="0.6" d="M167.273 248.13L205.295 226.207L243.356 248.13V292.016L205.295 313.978L167.273 292.016V248.13Z" fill="white" fill-opacity="0.25"/>
<g opacity="0.6">
<path d="M364.262 147.512L377.592 155.37V170.771L364.262 178.629L350.894 170.771V155.213L364.262 147.355M364.262 145.469L349.282 154.113V171.4L364.262 180.122L379.204 171.518V154.231L364.262 145.587V145.469Z" fill="white" fill-opacity="0.25"/>
</g>
<g opacity="0.6">
<path d="M284.641 165.271L349.95 202.948V278.343L284.641 316.021L219.371 278.343V202.948L284.641 165.271ZM284.641 156.116L211.428 198.352V282.822L284.641 325.057L357.853 282.822V198.352L284.641 156.116Z" fill="white" fill-opacity="0.25"/>
</g>
<g opacity="0.6">
<path d="M724.466 151.245L728.83 153.759V158.788L724.466 161.303L720.141 158.788V153.759L724.466 151.245ZM724.466 150.655L719.59 153.445V159.102L724.466 161.892L729.341 159.102V153.445L724.466 150.655Z" fill="white" fill-opacity="0.25"/>
</g>
<g style="mix-blend-mode:color-dodge">
<path d="M825.752 145.312L832.043 141.658L838.374 145.312V152.58L832.043 156.234L825.752 152.58V145.312Z" fill="white" fill-opacity="0.25"/>
</g>
<g style="mix-blend-mode:color-dodge">
<path d="M23.1284 166.174L65.1607 141.933L107.154 166.174V214.617L65.1607 238.858L23.1284 214.617V166.174Z" fill="white" fill-opacity="0.25"/>
</g>
<g style="mix-blend-mode:overlay">
<path d="M85.8035 140.99L96.3017 134.94L106.761 140.99V153.091L96.3017 159.142L85.8035 153.091V140.99Z" fill="white" fill-opacity="0.25"/>
</g>
<g style="mix-blend-mode:overlay">
<path d="M475.103 256.931L514.855 233.987L554.607 256.931V302.781L514.855 325.725L475.103 302.781V256.931Z" fill="white" fill-opacity="0.25"/>
</g>
<g style="mix-blend-mode:overlay">
<path d="M688.725 276.772L692.067 274.807L695.409 276.772V280.622L692.067 282.547L688.725 280.622V276.772Z" fill="white" fill-opacity="0.25"/>
</g>
<g style="mix-blend-mode:overlay">
<path d="M7.75477 300.974L10.9003 302.781V306.435L7.75477 308.242L4.60922 306.435V302.781L7.75477 300.974ZM7.75477 300.541L4.21606 302.584V306.513L7.75477 308.556L11.2542 306.513V302.584L7.75477 300.541Z" fill="white" fill-opacity="0.25"/>
</g>
<g style="mix-blend-mode:overlay">
<path d="M1060.8 162.324L1076.53 171.478V189.787L1060.8 198.902L1045.08 189.787V171.478L1060.8 162.324ZM1060.8 160.124L1042.95 170.378V190.887L1060.72 201.141L1078.54 190.887V170.378L1060.72 160.124H1060.8Z" fill="white" fill-opacity="0.25"/>
</g>
<g style="mix-blend-mode:overlay">
<path d="M76.1309 246.52L115.018 224.086L153.904 246.52V291.387L115.018 313.821L76.1309 291.387V246.52Z" fill="white" fill-opacity="0.25"/>
</g>
<g style="mix-blend-mode:overlay">
<path d="M992.348 143.623L1000.84 148.691V158.474L992.348 163.385L983.973 158.277V148.691L992.427 143.819M992.427 142.601L982.911 148.102V159.063L992.427 164.564L1001.94 159.063V147.905L992.427 142.405V142.601Z" fill="white" fill-opacity="0.25"/>
</g>
<g style="mix-blend-mode:overlay">
<path d="M744.873 195.327L781.675 216.582V259.053L744.873 280.308L708.031 259.053V216.582L744.873 195.327ZM744.873 190.18L703.548 213.989V261.646L744.873 285.494L786.158 261.646V213.989L744.873 190.18Z" fill="white" fill-opacity="0.25"/>
</g>
<g style="mix-blend-mode:overlay">
<path d="M261.679 143.505L270.093 148.337V158.042L261.679 162.874L253.304 158.042V148.337L261.679 143.505ZM261.679 142.326L252.281 147.748V158.631L261.679 164.053L271.115 158.631V147.748L261.679 142.326Z" fill="white" fill-opacity="0.25"/>
</g>
<g style="mix-blend-mode:color-dodge">
<path d="M463.386 146.648L466.414 148.416V151.873L463.386 153.602L460.398 151.873V148.416L463.386 146.648ZM463.386 146.255L460.005 148.18V152.109L463.386 154.034L466.768 152.109V148.18L463.386 146.255Z" fill="white" fill-opacity="0.25"/>
</g>
<g style="mix-blend-mode:color-dodge" opacity="0.3">
<path d="M-20.3979 223.418L26.156 196.584L72.7101 223.418V277.125L26.156 303.999L-20.3979 277.125V223.418Z" fill="white" fill-opacity="0.25"/>
</g>
<g style="mix-blend-mode:color-dodge" opacity="0.3">
<path d="M817.613 144.762L873.447 177.018V241.451L817.613 273.668L761.741 241.451V177.057L817.613 144.762ZM817.613 136.904L754.938 173.05V245.341L817.613 281.447L880.249 245.341V173.128L817.613 136.904Z" fill="white" fill-opacity="0.25"/>
</g>
<g opacity="0.6">
<path d="M-31.1713 119.853L9.72068 143.426V190.573L-31.1713 214.146L-72.1027 190.573V143.426L-31.1713 119.853ZM-31.1713 118.517L-73.2429 142.758V191.28L-31.1713 215.482L10.8609 191.201V142.758L-31.1713 118.517Z" fill="white" fill-opacity="0.25"/>
</g>
<g opacity="0.6">
<path d="M924.994 179.847L932.583 184.247V193.008L924.994 197.409L917.366 193.008V184.247L924.994 179.847ZM924.994 179.611L917.13 184.051V193.048L924.994 197.566L932.858 193.048V184.051L924.994 179.532V179.611Z" fill="white" fill-opacity="0.25"/>
</g>
<g style="mix-blend-mode:overlay">
<path d="M607.413 258.974L615.276 263.532V272.686L607.413 277.283L599.549 272.686V263.532L607.413 258.974ZM607.413 258.699L599.234 263.414V272.843L607.413 277.518L615.552 272.843V263.414L607.413 258.699Z" fill="white" fill-opacity="0.25"/>
</g>
<g style="mix-blend-mode:overlay">
<path d="M930.578 279.561L935.886 282.626V288.755L930.578 291.819L925.27 288.755V282.626L930.578 279.561ZM930.578 279.561L925.112 282.704V288.991L930.578 292.134L936.043 288.991V282.704L930.578 279.561Z" fill="white" fill-opacity="0.25"/>
</g>
<g style="mix-blend-mode:overlay">
<path d="M630.925 129.047L674.452 154.152V204.324L630.925 229.429L587.399 204.324V154.073L630.925 129.047ZM630.925 127.672L586.18 153.406V205.031L630.925 230.804L675.671 205.031V153.406L630.925 127.593V127.672Z" fill="white" fill-opacity="0.25"/>
</g>
<g style="mix-blend-mode:overlay">
<path d="M477.148 136.904L539.665 172.893V245.184L476.991 281.329L414.316 245.184V172.893L477.148 136.904ZM477.148 134.901L412.743 171.871V246.205L477.148 283.333L541.553 246.205V171.871L477.148 134.704V134.901Z" fill="white" fill-opacity="0.25"/>
</g>
<g style="mix-blend-mode:overlay">
<path d="M1083.8 267.185L1087.74 269.346V273.707L1083.8 275.907L1079.87 273.707V269.346L1083.8 267.185ZM1083.8 267.185L1079.87 269.464V273.943L1083.8 276.182L1087.74 273.943V269.307L1083.8 267.028V267.185Z" fill="white" fill-opacity="0.25"/>
</g>
<g style="mix-blend-mode:overlay">
<path d="M1013.03 212.496L1061.04 240.194V295.591L1013.03 323.093L964.982 295.591V240.194L1013.03 212.496ZM1013.03 210.963L963.645 239.408V296.377L1013.03 324.861L1062.38 296.377V239.408L1013.03 210.963Z" fill="white" fill-opacity="0.25"/>
</g>
<g style="mix-blend-mode:color-dodge">
<path d="M844.429 228.368L886.107 252.413V300.541L844.429 324.586L802.751 300.541V252.413L844.429 228.368ZM844.429 227.032L801.571 251.745V301.209L844.429 325.922L887.287 301.209V251.745L844.429 227.032Z" fill="white" fill-opacity="0.25"/>
</g>
<g style="mix-blend-mode:color-dodge">
<path d="M553.309 131.836L585.512 150.42V187.587L553.309 206.17L521.107 187.587V150.42L553.309 131.836ZM553.309 130.775L520.203 149.909V187.98L553.309 207.113L586.416 187.98V149.909L553.309 130.775Z" fill="white" fill-opacity="0.25"/>
</g>
<g style="mix-blend-mode:color-dodge" opacity="0.3">
<path d="M173.996 168.335L177.928 170.614V175.171L173.996 177.45L170.064 175.171V170.575L173.996 168.296M173.996 168.296L170.064 170.614V175.289L173.996 177.647L177.928 175.289V170.496L173.996 168.335V168.296Z" fill="white" fill-opacity="0.25"/>
</g>
<g opacity="0.3">
<path opacity="0.6" d="M173.957 103.234L262.072 52.3945L350.186 103.234V204.913L262.072 255.752L173.957 204.913V103.234Z" fill="white" fill-opacity="0.25"/>
<path opacity="0.6" d="M-66.4014 130.382L-9.54571 97.5764L47.3099 130.382V195.994L-9.54571 228.8L-66.4014 195.994V130.382Z" fill="white" fill-opacity="0.25"/>
<g opacity="0.6">
<path d="M228.021 -20.0144L247.956 -8.46354V14.5596L228.021 26.0712L208.047 14.5596V-8.46354L228.021 -19.9751M228.021 -22.7646L205.648 -9.87794V15.8954L228.021 28.8214L250.394 15.8954V-9.91722L228.021 -22.8039V-22.7646Z" fill="white" fill-opacity="0.25"/>
</g>
<g opacity="0.6">
<path d="M109.041 6.54469L206.632 62.806V175.368L109.041 231.668L11.4901 175.368V62.806L109.041 6.54469ZM109.041 -7.12775L-0.344971 55.9698V182.204L109.041 245.341L218.467 182.204V55.9698L109.041 -7.12775Z" fill="white" fill-opacity="0.25"/>
</g>
<g opacity="0.6">
<path d="M766.184 -14.3961L772.671 -10.6637V-3.15959L766.184 0.572836L759.853 -3.15959V-10.6637L766.341 -14.3961M766.341 -15.3391L759.067 -11.1352V-2.72741L766.341 1.47647L773.615 -2.72741V-11.1352L766.341 -15.3391Z" fill="white" fill-opacity="0.25"/>
</g>
<g style="mix-blend-mode:overlay">
<path d="M393.712 143.544L453.124 109.245L512.535 143.544V212.063L453.124 246.323L393.712 212.063V143.544Z" fill="white" fill-opacity="0.25"/>
</g>
<g style="mix-blend-mode:overlay">
<path d="M712.946 173.168L717.978 170.26L722.972 173.168V178.943L717.978 181.851L712.946 178.943V173.168Z" fill="white" fill-opacity="0.25"/>
</g>
<g style="mix-blend-mode:overlay">
<path d="M1269.12 2.14441L1292.71 15.8168V43.3189L1269.12 56.952L1245.52 43.3189V15.8168L1269.12 2.14441ZM1269.12 -1.19513L1242.54 14.1667V44.8118L1269.12 60.1344L1295.7 44.8118V14.1667L1269.12 -1.19513Z" fill="white" fill-opacity="0.25"/>
</g>
<g style="mix-blend-mode:overlay">
<path d="M1166.81 -25.8291L1179.47 -18.5214V-3.90603L1166.81 3.32308L1154.15 -3.98461V-18.5214L1166.81 -25.8291ZM1166.81 -27.6364L1152.57 -19.425V-3.00239L1166.81 5.16965L1181.04 -3.00239V-19.425L1166.81 -27.6364Z" fill="white" fill-opacity="0.25"/>
</g>
<g style="mix-blend-mode:overlay">
<path d="M796.892 51.4516L851.939 83.1968V146.726L796.892 178.472L741.845 146.726V83.1968L796.892 51.4516ZM796.892 43.5939L735.161 79.1894V150.577L796.892 186.172L858.623 150.577V79.3465L796.892 43.751V43.5939Z" fill="white" fill-opacity="0.25"/>
</g>
<g style="mix-blend-mode:overlay">
<path d="M74.7547 -25.9863L87.4941 -18.7572V-4.29897L74.9513 2.93014L62.4084 -4.29897V-18.7572L74.9513 -25.9863M74.9513 -27.7543L60.875 -19.6608V-3.43463L74.9513 4.69812L89.0276 -3.43463V-19.6608L74.9513 -27.7543Z" fill="white" fill-opacity="0.25"/>
</g>
<g style="mix-blend-mode:color-dodge" opacity="0.3">
<path d="M905.61 -24.179L989.084 24.1067V120.442L905.61 168.61L822.095 120.442V24.1067L905.61 -24.179ZM905.61 -35.9656L811.951 18.2527V126.296L905.61 180.318L999.229 126.296V18.2527L905.61 -35.7691V-35.9656Z" fill="white" fill-opacity="0.25"/>
</g>
<g opacity="0.6">
<path d="M1066.03 28.3106L1077.4 34.7539V47.8763L1066.03 54.3982L1054.75 47.9942V34.7539L1066.11 28.1927M1066.11 27.8391L1054.32 34.5575V48.0335L1066.11 54.7911L1077.91 48.0335V34.7539L1066.11 28.0356V27.8391Z" fill="white" fill-opacity="0.25"/>
</g>
<g style="mix-blend-mode:overlay">
<path d="M591.449 146.569L603.245 153.406V167.078L591.449 173.914L579.653 167.078V153.406L591.449 146.569ZM591.449 146.176L579.26 153.209V167.274L591.449 174.307L603.638 167.274V153.209L591.449 146.176Z" fill="white" fill-opacity="0.25"/>
</g>
<g style="mix-blend-mode:overlay">
<path d="M1074.41 177.332L1082.27 181.929V191.083L1074.41 195.837L1066.54 191.24V181.929L1074.41 177.332ZM1074.41 177.097L1066.23 181.811V191.201L1074.41 195.837L1082.55 191.123V181.811L1074.41 177.097Z" fill="white" fill-opacity="0.25"/>
</g>
<g style="mix-blend-mode:overlay">
<path d="M626.6 -47.7522L691.674 -10.2316V64.8883L626.6 102.409L561.566 64.8883V-10.1923L626.6 -47.7522ZM626.6 -49.8345L559.758 -11.253V65.9098L626.6 104.491L693.443 65.9098V-11.2138L626.6 -49.7952V-49.8345Z" fill="white" fill-opacity="0.25"/>
</g>
<g style="mix-blend-mode:overlay">
<path d="M396.779 -35.9656L490.438 18.0563V125.982L396.779 180.122L303.082 125.982V17.8991L396.779 -35.9656ZM396.779 -38.9908L300.487 16.4062V127.475L396.779 182.99L493.033 127.475V16.4062L396.779 -39.1479V-38.9908Z" fill="white" fill-opacity="0.25"/>
</g>
<g style="mix-blend-mode:overlay">
<path d="M1197.67 77.1071L1269.47 118.478V201.298L1197.67 242.709L1125.92 201.298V118.478L1197.67 77.1071ZM1197.67 74.789L1123.91 117.26V202.477L1197.67 245.027L1271.44 202.477V117.26L1197.67 74.789Z" fill="white" fill-opacity="0.25"/>
</g>
<g style="mix-blend-mode:color-dodge">
<path d="M945.676 100.837L1008 136.904V208.803L945.676 244.752L883.395 208.803V136.904L945.676 100.955M945.676 98.9515L881.743 135.765V209.667L945.755 246.637L1009.81 209.667V135.765L945.755 98.8337L945.676 98.9515Z" fill="white" fill-opacity="0.25"/>
</g>
<g style="mix-blend-mode:color-dodge">
<path d="M510.609 -43.4697L558.735 -15.6927V39.9007L510.609 67.6778L462.443 39.9007V-15.6927L510.609 -43.4697ZM510.609 -45.002L461.027 -16.3213V40.6472L510.53 69.21L560.112 40.6472V-16.3213L510.609 -45.002Z" fill="white" fill-opacity="0.25"/>
</g>
</g>
<path opacity="0.4" d="M493.741 55.6162L552.72 21.5923L611.698 55.6162V123.664L552.72 157.649L493.741 123.664V55.6162Z" fill="white" fill-opacity="0.25"/>
<path opacity="0.3" d="M332.964 73.7675L370.986 51.8445L409.047 73.7675V117.692L370.986 139.615L332.964 117.692V73.7675Z" fill="white" fill-opacity="0.25"/>
<path opacity="0.6" d="M32.7617 13.263L54.2694 0.847839L75.7376 13.263V38.0542L54.2694 50.4301L32.7617 38.0542V13.263Z" fill="white" fill-opacity="0.25"/>
<g opacity="0.6">
<path d="M529.954 -26.8506L543.283 -18.9929V-3.7489L529.954 4.10883L516.585 -3.7489V-19.15L529.954 -27.0078M529.954 -28.8936L514.973 -20.2501V-2.96312L529.954 5.64108L544.895 -2.96312V-20.2501L529.954 -28.8936Z" fill="white" fill-opacity="0.25"/>
</g>
<g opacity="0.4">
<path d="M450.332 -9.09214L515.642 28.5856V103.902L450.332 141.54L385.062 103.902V28.5856L450.332 -9.09214ZM450.332 -18.2464L377.159 23.9889V108.459L450.332 150.695L523.545 108.459V23.9889L450.332 -18.2464Z" fill="white" fill-opacity="0.25"/>
</g>
<g style="mix-blend-mode:color-dodge" opacity="0.5">
<path d="M188.82 -8.1885L230.852 -32.4296L272.845 -8.1885V40.2937L230.852 64.4954L188.82 40.2937V-8.1885Z" fill="white" fill-opacity="0.25"/>
</g>
<g style="mix-blend-mode:overlay">
<path d="M640.834 82.5682L680.546 59.6237L720.298 82.5682V128.418L680.546 151.363L640.834 128.418V82.5682Z" fill="white" fill-opacity="0.25"/>
</g>
<g style="mix-blend-mode:overlay">
<path d="M854.416 102.409L857.758 100.445L861.1 102.409V106.259L857.758 108.184L854.416 106.259V102.409Z" fill="white" fill-opacity="0.25"/>
</g>
<g style="mix-blend-mode:overlay">
<path d="M173.446 126.611L176.591 128.418V132.072L173.446 133.879L170.3 132.072V128.418L173.446 126.611ZM173.446 126.179L169.907 128.222V132.15L173.446 134.193L176.985 132.15V128.222L173.446 126.179Z" fill="white" fill-opacity="0.25"/>
</g>
<g style="mix-blend-mode:overlay">
<path d="M1226.53 -12.0388L1242.26 -2.88454V15.424L1226.53 24.5389L1210.81 15.424V-2.88454L1226.53 -12.0388ZM1226.53 -14.239L1208.72 -3.98462V16.524L1226.53 26.8962L1244.31 16.6419V-3.98462L1226.53 -14.239Z" fill="white" fill-opacity="0.25"/>
</g>
<g style="mix-blend-mode:overlay">
<path d="M241.822 72.1567L280.709 49.7229L319.596 72.1567V117.024L280.709 139.458L241.822 117.024V72.1567Z" fill="white" fill-opacity="0.25"/>
</g>
<g style="mix-blend-mode:overlay">
<path d="M910.564 20.9636L947.367 42.2188V84.6898L910.564 105.945L873.879 84.6898V42.2188L910.721 20.9636M910.721 15.8168L869.436 39.6257V87.2828L910.721 111.131L952.006 87.2828V39.6257L910.721 15.8168Z" fill="white" fill-opacity="0.25"/>
</g>
<g style="mix-blend-mode:color-dodge">
<path d="M57.8476 115.256L61.5829 117.378V121.66L57.8476 123.821L54.1516 121.66V117.26L57.8476 115.138M57.8476 114.588L53.6797 117.26V122.093L57.8476 124.489L62.0154 122.093V117.26L57.8476 114.863V114.588Z" fill="white" fill-opacity="0.25"/>
</g>
<g style="mix-blend-mode:color-dodge" opacity="0.3">
<path d="M-116.612 -3.70962L-48 -43.2733L20.6514 -3.70962V75.4962L-48 115.06L-116.612 75.4962V-3.70962Z" fill="white" fill-opacity="0.25"/>
</g>
<g style="mix-blend-mode:color-dodge" opacity="0.3">
<path d="M145.293 49.055L191.847 22.2209L238.401 49.055V102.763L191.847 129.636L145.293 102.763V49.055Z" fill="white" fill-opacity="0.25"/>
</g>
<g style="mix-blend-mode:color-dodge" opacity="0.3">
<path d="M983.304 -29.5615L1039.02 2.69442V67.1278L983.147 99.3444L927.275 67.1278V2.69442L983.147 -29.5615M983.147 -37.4193L920.472 -1.27372V71.0173L983.147 107.124L1045.78 71.0173V-1.23444L983.147 -37.38V-37.4193Z" fill="white" fill-opacity="0.25"/>
</g>
<g opacity="0.6">
<path d="M117.22 39.2328L157.758 62.806V109.402L117.22 132.975L76.6815 109.402V62.6096L117.22 39.0364M117.22 37.7399L75.6985 61.981V110.031L117.377 134.076L159.016 110.031V61.981L117.377 37.9363L117.22 37.7399Z" fill="white" fill-opacity="0.25"/>
</g>
<g opacity="0.6">
<path d="M134.677 -54.5098L175.569 -30.9366V16.2097L134.677 39.7829L93.7853 16.2097V-30.9366L134.677 -54.5098ZM134.677 -55.8456L92.645 -31.5652V16.9169L134.677 41.1973L176.71 16.9169V-31.5652L134.677 -55.8456Z" fill="white" fill-opacity="0.25"/>
</g>
<g opacity="0.6">
<path d="M1090.65 5.48389L1098.23 9.88421V18.6456L1090.65 22.9673L1083.02 18.567V9.88421L1090.65 5.48389ZM1090.65 5.24817L1082.78 9.76635V18.7634L1090.65 23.2816L1098.51 18.7634V9.76635L1090.65 5.24817Z" fill="white" fill-opacity="0.25"/>
</g>
<g style="mix-blend-mode:overlay">
<path d="M773.104 84.6112L780.968 89.1686V98.3229L773.104 102.92L765.24 98.3229V89.1686L773.104 84.6112ZM773.104 84.3362L764.965 89.0508V98.4801L773.104 103.155L781.243 98.4801V89.0508L773.104 84.3362Z" fill="white" fill-opacity="0.25"/>
</g>
<g style="mix-blend-mode:overlay">
<path d="M1096.27 105.198L1101.58 108.263V114.392L1096.27 117.457L1090.96 114.392V108.263L1096.27 105.198ZM1096.27 105.198L1090.84 108.342V114.628L1096.27 117.771L1101.73 114.628V108.342L1096.27 105.198Z" fill="white" fill-opacity="0.25"/>
</g>
<g style="mix-blend-mode:overlay">
<path d="M796.617 -45.3949L840.143 -20.2501V29.9607L796.617 55.0661L753.09 29.9607V-20.2501L796.617 -45.3556M796.617 -46.7307L751.99 -20.9573V30.825L796.695 56.5984L841.362 30.825V-20.9573L796.617 -46.77V-46.7307Z" fill="white" fill-opacity="0.25"/>
</g>
<g style="mix-blend-mode:overlay">
<path d="M642.839 -37.655L705.514 -1.47017V70.8209L642.839 106.966L580.164 70.8209V-1.47017L642.839 -37.655ZM642.839 -39.6587L578.434 -2.49167V71.8424L642.839 108.97L707.244 71.8424V-2.49167L642.839 -39.6587Z" fill="white" fill-opacity="0.25"/>
</g>
<g style="mix-blend-mode:overlay">
<path d="M1249.5 92.8225L1253.43 94.9834V99.3444L1249.5 101.545L1245.56 99.3444V94.9834L1249.5 92.8225ZM1249.5 92.8225L1245.56 95.062V99.5409L1249.5 101.78L1253.43 99.5409V94.9441L1249.5 92.7047V92.8225Z" fill="white" fill-opacity="0.25"/>
</g>
<g style="mix-blend-mode:overlay">
<path d="M1178.72 38.1328L1226.73 65.6348V121.189L1178.72 148.691L1130.71 121.189V65.8312L1178.72 38.3292M1178.72 36.797L1129.45 65.0455V122.014L1178.8 150.498L1228.15 122.014V65.0455L1178.8 36.6005L1178.72 36.797Z" fill="white" fill-opacity="0.25"/>
</g>
<g style="mix-blend-mode:color-dodge">
<path d="M1010.12 54.0054L1051.8 77.9714V126.179L1010.12 150.223L968.442 126.179V77.9714L1010.12 53.9268M1010.12 52.591L967.262 77.3035V126.846L1010.12 151.559L1052.98 126.846V77.3821L1010.12 52.6696V52.591Z" fill="white" fill-opacity="0.25"/>
</g>
<g style="mix-blend-mode:color-dodge">
<path d="M719.001 -42.5268L751.243 -23.9433V13.2238L719.001 31.8073L686.798 13.2238V-23.9433L719.001 -42.5268ZM719.001 -43.5876L685.894 -24.454V13.7345L719.001 32.8681L751.99 13.7345V-24.454L718.883 -43.5876H719.001Z" fill="white" fill-opacity="0.25"/>
</g>
<g style="mix-blend-mode:color-dodge" opacity="0.3">
<path d="M-8.64139 71.4888L16.405 85.8291V114.706L-8.64139 129.125L-33.6484 114.706V85.8291L-8.64139 71.3709M-8.64139 70.5851L-34.3955 85.5541V115.217L-8.68074 130.029L17.0734 115.217V85.5541L-8.68074 70.703L-8.64139 70.5851Z" fill="white" fill-opacity="0.25"/>
</g>
<g style="mix-blend-mode:color-dodge" opacity="0.3">
<path d="M339.531 -6.06695L343.462 -3.78822V0.769257L339.531 3.048L335.599 0.769257V-3.78822L339.531 -6.06695ZM339.531 -6.06695L335.599 -3.74892V0.926415L339.531 3.28374L343.462 0.926415V-3.8668L339.531 -6.18481V-6.06695Z" fill="white" fill-opacity="0.25"/>
</g>
<g opacity="0.3">
<path opacity="0.6" d="M857.326 224.754L945.44 173.914L1033.59 224.754V326.433L945.44 377.272L857.326 326.433V224.754Z" fill="white" fill-opacity="0.25"/>
<path opacity="0.6" d="M617.006 251.902L673.862 219.096L730.718 251.902V317.475L673.862 350.281L617.006 317.475V251.902Z" fill="white" fill-opacity="0.25"/>
<path opacity="0.6" d="M168.334 161.42L200.419 142.915L232.543 161.42V198.47L200.419 217.014L168.334 198.47V161.42Z" fill="white" fill-opacity="0.25"/>
<g opacity="0.6">
<path d="M911.39 101.545L931.364 113.056V136.079L911.39 147.591L891.455 136.079V112.978L911.39 101.545ZM911.39 98.7551L889.017 111.681V137.494L911.39 150.38L933.762 137.494V111.602L911.39 98.6765V98.7551Z" fill="white" fill-opacity="0.25"/>
</g>
<g opacity="0.6">
<path d="M792.449 128.025L890 184.326V296.888L792.449 352.992L694.859 296.73V184.326L792.449 128.025ZM792.449 114.353L683.023 177.489V303.724L792.449 366.821L901.835 303.724V177.489L792.449 114.353Z" fill="white" fill-opacity="0.25"/>
</g>
<g style="mix-blend-mode:color-dodge">
<path d="M401.576 129.361L464.369 93.1761L527.162 129.361V201.809L464.369 238.033L401.576 201.809V129.361Z" fill="white" fill-opacity="0.25"/>
</g>
<g style="mix-blend-mode:color-dodge">
<path d="M-30.3457 295.12L-2.35042 278.972L25.6449 295.12V327.415L-2.35042 343.562L-30.3457 327.415V295.12Z" fill="white" fill-opacity="0.25"/>
</g>
<g style="mix-blend-mode:overlay">
<path d="M495.235 91.7617L510.923 82.7253L526.572 91.7617V109.795L510.923 118.832L495.235 109.795V91.7617Z" fill="white" fill-opacity="0.25"/>
</g>
<g style="mix-blend-mode:overlay">
<path d="M1077.12 265.025L1136.53 230.765L1195.9 265.025V333.583L1136.53 367.843L1077.12 333.583V265.025Z" fill="white" fill-opacity="0.25"/>
</g>
<g style="mix-blend-mode:overlay">
<path d="M480.765 249.466L538.879 215.914L596.993 249.466V316.493L538.879 350.045L480.765 316.493V249.466Z" fill="white" fill-opacity="0.25"/>
</g>
<g style="mix-blend-mode:overlay">
<path d="M758.123 95.4941L770.666 102.723V117.26L758.123 124.489L745.58 117.26V102.723L758.123 95.4941ZM758.123 93.7262L744.125 101.859V118.085L758.202 126.218L772.278 118.085V101.859L758.123 93.6869V93.7262Z" fill="white" fill-opacity="0.25"/>
</g>
<g style="mix-blend-mode:color-dodge">
<path d="M1059.58 100.209L1064.11 102.802V108.027L1059.58 110.62L1055.1 108.027V102.802L1059.58 100.209ZM1059.58 99.5801L1054.55 102.487V108.342L1059.58 111.249L1064.62 108.342V102.487L1059.58 99.5801Z" fill="white" fill-opacity="0.25"/>
</g>
<g style="mix-blend-mode:color-dodge" opacity="0.3">
<path d="M-54.9595 136.079L47.6244 76.9106L150.169 136.079V254.417L47.6244 313.585L-54.9595 254.417V136.079Z" fill="white" fill-opacity="0.25"/>
</g>
<g style="mix-blend-mode:color-dodge" opacity="0.3">
<path d="M336.503 214.932L406.098 174.818L475.654 214.932V295.237L406.098 335.351L336.503 295.237V214.932Z" fill="white" fill-opacity="0.25"/>
</g>
<g opacity="0.6">
<path d="M294.51 200.277L355.101 235.126V305.02L294.51 339.987L233.919 305.02V235.126L294.51 200.198M294.51 198.234L232.228 234.144V306.003L294.51 341.952L356.792 306.003V234.222L294.51 198.312V198.234Z" fill="white" fill-opacity="0.25"/>
</g>
<g opacity="0.6">
<path d="M320.382 60.1344L381.523 95.4941V166.214L320.382 201.573L259.28 166.214V95.4941L320.382 60.1344ZM320.382 58.17L257.471 94.3941V166.882L320.382 203.145L383.293 166.882V94.3941L320.382 58.17Z" fill="white" fill-opacity="0.25"/>
</g>
<g style="mix-blend-mode:overlay">
<path d="M1274.94 268.089L1286.73 274.925V288.598L1274.94 295.434L1263.14 288.598V274.925L1274.94 268.089ZM1274.94 267.696L1262.75 274.729V288.794L1274.94 295.788L1287.12 288.794V274.729L1274.94 267.696Z" fill="white" fill-opacity="0.25"/>
</g>
<g style="mix-blend-mode:overlay">
<path d="M1310.01 73.8068L1373.82 110.62V187.076L1310.01 223.889L1244.93 186.369V111.327L1310.01 73.8068ZM1310.01 71.6852L1243.17 110.267V187.429L1310.01 226.011L1375.63 187.98V109.402L1310.01 71.6852Z" fill="white" fill-opacity="0.25"/>
</g>
<g style="mix-blend-mode:overlay">
<path d="M1080.15 85.3577L1173.81 139.38V247.463L1080.15 301.484L986.49 247.463V139.38L1080.15 85.3577ZM1080.15 82.3717L983.973 137.887V248.955L1080.27 304.51L1176.52 248.955V137.887L1080.15 82.3717Z" fill="white" fill-opacity="0.25"/>
</g>
<g style="mix-blend-mode:color-dodge">
<path d="M1193.98 77.9714L1242.14 105.748V161.381L1193.98 189.158L1145.81 161.381V105.827L1193.98 77.9714ZM1193.98 76.3999L1144.47 104.963V162.167L1193.98 190.73L1243.48 162.167V105.041L1193.98 76.4785V76.3999Z" fill="white" fill-opacity="0.25"/>
</g>
<g style="mix-blend-mode:color-dodge" opacity="0.3">
<path d="M83.5622 93.0975L93.8245 98.9908V110.777L83.5622 116.749L73.3392 110.817V99.0301L83.5622 93.1368M83.5622 92.8225L73.0247 98.873V110.974L83.5622 117.26L94.0997 111.17V98.8337L83.5622 92.7832V92.8225Z" fill="white" fill-opacity="0.25"/>
</g>
<g style="mix-blend-mode:color-dodge" opacity="0.3">
<path d="M106.446 248.484L143.839 270.053V313.271L106.446 334.88L69.0533 313.271V270.053L106.446 248.484ZM106.446 247.266L68.031 269.464V313.703L106.446 335.862L144.9 313.703V269.464L106.446 247.266Z" fill="white" fill-opacity="0.25"/>
</g>
<g style="mix-blend-mode:color-dodge" opacity="0.3">
<path d="M626.797 132.543L632.695 135.961V142.758L626.797 146.137L620.899 142.758V135.961L626.797 132.543ZM626.797 132.543L620.742 136.001V142.994L626.797 146.491L632.852 142.994V135.844L626.797 132.386V132.543Z" fill="white" fill-opacity="0.25"/>
</g>
</g>
<g style="mix-blend-mode:overlay">
<path d="M1243.79 -18.5539L1240.56 -16.6877L1280.88 53.0974L1284.11 51.2312L1243.79 -18.5539Z" fill="white" fill-opacity="0.25"/>
<path d="M1282.48 60.6059C1280.81 60.6059 1279.18 60.1105 1277.79 59.1823C1276.4 58.2541 1275.31 56.9349 1274.67 55.3914C1274.03 53.8479 1273.87 52.1494 1274.19 50.5109C1274.52 48.8723 1275.33 47.3672 1276.51 46.1859C1277.69 45.0045 1279.2 44.2 1280.84 43.8741C1282.48 43.5481 1284.18 43.7154 1285.72 44.3548C1287.26 44.9941 1288.58 46.0768 1289.51 47.4659C1290.44 48.855 1290.94 50.4881 1290.94 52.1588C1290.94 54.3991 1290.05 56.5477 1288.46 58.1318C1286.88 59.7159 1284.73 60.6059 1282.48 60.6059Z" fill="white" fill-opacity="0.25"/>
<path d="M1001.91 -18.5539L998.675 -16.6877L1039 53.0975L1042.23 51.2312L1001.91 -18.5539Z" fill="white" fill-opacity="0.25"/>
<path d="M1159.95 -18.5083L1119.66 51.2909L1122.89 53.156L1163.19 -16.6433L1159.95 -18.5083Z" fill="white" fill-opacity="0.25"/>
<path d="M1128.55 56.3627C1127.71 57.8122 1126.47 58.9814 1124.97 59.7219C1123.47 60.4624 1121.78 60.741 1120.12 60.5223C1118.46 60.3036 1116.9 59.5975 1115.64 58.4934C1114.39 57.3894 1113.49 55.9371 1113.05 54.3208C1112.62 52.7044 1112.68 50.9966 1113.23 49.414C1113.77 47.8313 1114.77 46.445 1116.1 45.4308C1117.43 44.4165 1119.03 43.82 1120.7 43.7168C1122.37 43.6136 1124.04 44.0084 1125.48 44.8511C1127.41 45.9757 1128.82 47.8177 1129.39 49.9747C1129.97 52.1317 1129.66 54.4283 1128.55 56.3627Z" fill="white" fill-opacity="0.25"/>
<path d="M1121.28 50.2729H1040.63V54.0054H1121.28V50.2729Z" fill="white" fill-opacity="0.25"/>
<path d="M1040.59 60.6059C1038.92 60.5981 1037.29 60.0961 1035.91 59.1632C1034.52 58.2303 1033.44 56.9084 1032.81 55.3642C1032.18 53.8201 1032.02 52.1229 1032.35 50.4869C1032.68 48.851 1033.48 47.3495 1034.67 46.1721C1035.85 44.9947 1037.36 44.1941 1039 43.8713C1040.64 43.5486 1042.33 43.7181 1043.88 44.3586C1045.42 44.9991 1046.74 46.0817 1047.66 47.47C1048.59 48.8582 1049.09 50.4898 1049.09 52.1588C1049.09 53.2714 1048.87 54.373 1048.44 55.4005C1048.01 56.4279 1047.39 57.3608 1046.6 58.1457C1045.81 58.9306 1044.87 59.552 1043.84 59.9742C1042.81 60.3964 1041.71 60.611 1040.59 60.6059Z" fill="white" fill-opacity="0.25"/>
<path d="M760.026 -18.5147L756.791 -16.6484L797.113 53.1367L800.348 51.2705L760.026 -18.5147Z" fill="white" fill-opacity="0.25"/>
<path d="M919.218 -24.1931L878.896 45.9124L882.146 47.7786L922.468 -22.3269L919.218 -24.1931Z" fill="white" fill-opacity="0.25"/>
<path d="M886.658 56.3627C885.823 57.8122 884.576 58.9814 883.075 59.7219C881.574 60.4624 879.886 60.741 878.227 60.5223C876.567 60.3036 875.01 59.5975 873.752 58.4934C872.495 57.3894 871.594 55.9371 871.163 54.3208C870.732 52.7044 870.792 50.9966 871.333 49.414C871.875 47.8313 872.875 46.445 874.206 45.4308C875.537 44.4165 877.14 43.82 878.811 43.7168C880.481 43.6136 882.145 44.0084 883.591 44.8511C884.551 45.4043 885.391 46.1412 886.065 47.0197C886.738 47.8983 887.232 48.901 887.517 49.9705C887.802 51.0401 887.873 52.1552 887.725 53.2522C887.578 54.3491 887.215 55.4061 886.658 56.3627Z" fill="white" fill-opacity="0.25"/>
<path d="M879.384 50.2729H798.74V54.0054H879.384V50.2729Z" fill="white" fill-opacity="0.25"/>
<path d="M798.74 60.6059C797.062 60.6371 795.412 60.1683 794.001 59.2593C792.591 58.3503 791.483 57.0422 790.819 55.5017C790.155 53.9612 789.965 52.2581 790.273 50.6093C790.581 48.9605 791.374 47.4407 792.549 46.2436C793.725 45.0465 795.231 44.2263 796.875 43.8874C798.519 43.5485 800.227 43.7064 801.781 44.3408C803.334 44.9753 804.664 46.0576 805.6 47.4499C806.536 48.8423 807.036 50.4815 807.036 52.1588C807.037 54.3721 806.168 56.4972 804.616 58.0769C803.065 59.6566 800.955 60.5647 798.74 60.6059Z" fill="white" fill-opacity="0.25"/>
<path d="M518.142 -18.5146L514.907 -16.6484L555.229 53.1367L558.464 51.2705L518.142 -18.5146Z" fill="white" fill-opacity="0.25"/>
<path d="M676.178 -18.5533L635.881 51.246L639.116 53.1111L679.414 -16.6882L676.178 -18.5533Z" fill="white" fill-opacity="0.25"/>
<path d="M644.766 56.3627C643.931 57.8122 642.684 58.9814 641.183 59.7219C639.682 60.4624 637.994 60.741 636.335 60.5223C634.675 60.3036 633.118 59.5975 631.86 58.4934C630.603 57.3894 629.702 55.9371 629.271 54.3208C628.84 52.7044 628.899 50.9966 629.441 49.414C629.983 47.8313 630.983 46.445 632.314 45.4308C633.645 44.4165 635.248 43.82 636.918 43.7168C638.589 43.6136 640.253 44.0084 641.699 44.8511C642.658 45.4043 643.499 46.1412 644.173 47.0197C644.846 47.8983 645.34 48.901 645.625 49.9705C645.91 51.0401 645.98 52.1552 645.833 53.2522C645.686 54.3491 645.323 55.4061 644.766 56.3627Z" fill="white" fill-opacity="0.25"/>
<path d="M637.492 50.2729H556.848V54.0054H637.492V50.2729Z" fill="white" fill-opacity="0.25"/>
<path d="M556.848 60.6059C555.176 60.6059 553.542 60.1105 552.152 59.1823C550.761 58.2541 549.678 56.9349 549.038 55.3914C548.398 53.8479 548.231 52.1494 548.557 50.5109C548.883 48.8723 549.688 47.3672 550.871 46.1859C552.053 45.0045 553.559 44.2 555.199 43.8741C556.839 43.5481 558.539 43.7154 560.083 44.3548C561.628 44.9941 562.948 46.0768 563.877 47.4659C564.806 48.855 565.302 50.4881 565.302 52.1588C565.302 54.3991 564.411 56.5477 562.826 58.1318C561.24 59.7159 559.09 60.6059 556.848 60.6059Z" fill="white" fill-opacity="0.25"/>
<path d="M276.219 -18.5146L272.984 -16.6484L313.306 53.1367L316.541 51.2705L276.219 -18.5146Z" fill="white" fill-opacity="0.25"/>
<path d="M434.241 -18.5979L393.944 51.2013L397.179 53.0663L437.477 -16.7328L434.241 -18.5979Z" fill="white" fill-opacity="0.25"/>
<path d="M402.913 56.3627C402.082 57.8137 400.838 58.9854 399.339 59.7295C397.841 60.4736 396.155 60.7565 394.495 60.5424C392.836 60.3284 391.277 59.627 390.017 58.5271C388.756 57.4272 387.851 55.9783 387.415 54.3639C386.98 52.7495 387.033 51.0422 387.57 49.4583C388.106 47.8744 389.1 46.4851 390.427 45.4664C391.754 44.4478 393.354 43.8455 395.024 43.736C396.693 43.6265 398.358 44.0146 399.807 44.8511C401.735 45.9765 403.143 47.8155 403.724 49.9701C404.305 52.1246 404.014 54.4212 402.913 56.3627Z" fill="white" fill-opacity="0.25"/>
<path d="M395.6 50.2729H314.956V54.0054H395.6V50.2729Z" fill="white" fill-opacity="0.25"/>
<path d="M314.956 60.6059C313.284 60.6059 311.65 60.1105 310.259 59.1823C308.869 58.2541 307.786 56.9349 307.146 55.3914C306.506 53.8479 306.339 52.1494 306.665 50.5109C306.991 48.8723 307.796 47.3672 308.978 46.1859C310.161 45.0045 311.667 44.2 313.307 43.8741C314.947 43.5481 316.646 43.7154 318.191 44.3548C319.736 44.9941 321.056 46.0768 321.985 47.4659C322.914 48.855 323.41 50.4881 323.41 52.1588C323.41 54.3991 322.519 56.5477 320.934 58.1318C319.348 59.7159 317.198 60.6059 314.956 60.6059Z" fill="white" fill-opacity="0.25"/>
<path d="M1243.77 120.97L1240.54 122.836L1280.86 192.621L1284.1 190.755L1243.77 120.97Z" fill="white" fill-opacity="0.25"/>
<path d="M1234.87 126.139C1234.04 124.692 1233.65 123.03 1233.76 121.364C1233.88 119.698 1234.48 118.102 1235.5 116.779C1236.52 115.455 1237.91 114.464 1239.49 113.928C1241.07 113.393 1242.78 113.339 1244.39 113.772C1246.01 114.206 1247.46 115.107 1248.56 116.363C1249.66 117.619 1250.36 119.173 1250.58 120.828C1250.8 122.484 1250.52 124.167 1249.78 125.664C1249.04 127.162 1247.88 128.407 1246.43 129.243C1245.47 129.799 1244.4 130.16 1243.3 130.305C1242.2 130.45 1241.08 130.376 1240 130.088C1238.93 129.799 1237.92 129.302 1237.04 128.625C1236.16 127.947 1235.42 127.103 1234.87 126.139Z" fill="white" fill-opacity="0.25"/>
<path d="M1280.92 51.2696L1240.62 121.069L1243.85 122.934L1284.15 53.1346L1280.92 51.2696Z" fill="white" fill-opacity="0.25"/>
<path d="M1275.17 47.9156C1276.01 46.47 1277.25 45.3045 1278.75 44.5663C1280.25 43.8281 1281.94 43.5503 1283.59 43.7681C1285.25 43.9859 1286.8 44.6895 1288.06 45.7899C1289.32 46.8904 1290.22 48.3384 1290.65 49.951C1291.09 51.5635 1291.03 53.2684 1290.5 54.8501C1289.96 56.4318 1288.97 57.8194 1287.65 58.8377C1286.32 59.8559 1284.72 60.4591 1283.06 60.571C1281.39 60.683 1279.73 60.2986 1278.28 59.4665C1277.31 58.9129 1276.47 58.1746 1275.79 57.2941C1275.11 56.4135 1274.61 55.408 1274.33 54.335C1274.04 53.262 1273.96 52.1428 1274.11 51.0412C1274.25 49.9397 1274.61 48.8775 1275.17 47.9156Z" fill="white" fill-opacity="0.25"/>
<path d="M1122.83 51.2303L1119.6 53.0966L1159.92 122.882L1163.15 121.015L1122.83 51.2303Z" fill="white" fill-opacity="0.25"/>
<path d="M1113.92 56.3627C1113.09 54.915 1112.71 53.2532 1112.82 51.5871C1112.93 49.9211 1113.53 48.3256 1114.55 47.0022C1115.57 45.6788 1116.96 44.6869 1118.54 44.1518C1120.13 43.6167 1121.83 43.5623 1123.45 43.9956C1125.06 44.429 1126.51 45.3305 1127.61 46.5863C1128.71 47.8422 1129.42 49.396 1129.63 51.0516C1129.85 52.7071 1129.57 54.39 1128.84 55.8877C1128.1 57.3855 1126.93 58.6308 1125.48 59.4665C1124.52 60.0278 1123.46 60.3928 1122.36 60.5405C1121.25 60.6882 1120.13 60.6156 1119.05 60.3269C1117.98 60.0382 1116.97 59.5392 1116.09 58.8587C1115.21 58.1782 1114.47 57.3298 1113.92 56.3627Z" fill="white" fill-opacity="0.25"/>
<path d="M1159.95 -18.5083L1119.66 51.2909L1122.89 53.156L1163.19 -16.6433L1159.95 -18.5083Z" fill="white" fill-opacity="0.25"/>
<path d="M1243.79 -18.5539L1240.56 -16.6877L1280.88 53.0974L1284.11 51.2312L1243.79 -18.5539Z" fill="white" fill-opacity="0.25"/>
<path d="M1289.84 47.9156C1290.68 49.3605 1291.07 51.0214 1290.96 52.6885C1290.86 54.3556 1290.26 55.9539 1289.24 57.2814C1288.23 58.6089 1286.84 59.6061 1285.26 60.1468C1283.68 60.6874 1281.97 60.7474 1280.36 60.319C1278.74 59.8907 1277.29 58.9933 1276.18 57.7402C1275.08 56.4872 1274.37 54.9348 1274.15 53.2792C1273.92 51.6237 1274.2 49.9394 1274.93 48.4393C1275.67 46.9391 1276.83 45.6904 1278.28 44.8511C1280.22 43.7355 1282.52 43.4315 1284.69 44.0055C1286.85 44.5794 1288.7 45.9848 1289.84 47.9156Z" fill="white" fill-opacity="0.25"/>
<path d="M1280.92 51.2696L1240.62 121.069L1243.85 122.934L1284.15 53.1346L1280.92 51.2696Z" fill="white" fill-opacity="0.25"/>
<path d="M1249.5 126.139C1248.66 127.584 1247.41 128.746 1245.91 129.481C1244.4 130.216 1242.72 130.489 1241.06 130.267C1239.4 130.044 1237.85 129.336 1236.6 128.232C1235.34 127.127 1234.44 125.676 1234.02 124.061C1233.59 122.447 1233.65 120.741 1234.19 119.161C1234.73 117.58 1235.73 116.196 1237.06 115.182C1238.38 114.168 1239.98 113.57 1241.65 113.465C1243.32 113.359 1244.98 113.75 1246.43 114.588C1247.39 115.145 1248.23 115.886 1248.91 116.768C1249.58 117.65 1250.07 118.656 1250.36 119.729C1250.64 120.802 1250.71 121.92 1250.57 123.02C1250.42 124.12 1250.05 125.18 1249.5 126.139Z" fill="white" fill-opacity="0.25"/>
<path d="M1242.18 120.05H1161.54V123.782H1242.18V120.05Z" fill="white" fill-opacity="0.25"/>
<path d="M1161.54 130.382C1159.87 130.382 1158.23 129.887 1156.84 128.959C1155.45 128.031 1154.37 126.711 1153.73 125.168C1153.09 123.624 1152.92 121.926 1153.25 120.287C1153.57 118.649 1154.38 117.144 1155.56 115.962C1156.74 114.781 1158.25 113.977 1159.89 113.651C1161.53 113.325 1163.23 113.492 1164.77 114.131C1166.32 114.771 1167.64 115.853 1168.57 117.242C1169.5 118.632 1169.99 120.265 1169.99 121.935C1169.98 124.173 1169.09 126.315 1167.5 127.897C1165.92 129.479 1163.78 130.372 1161.54 130.382Z" fill="white" fill-opacity="0.25"/>
<path d="M1001.89 120.97L998.655 122.836L1038.98 192.621L1042.21 190.755L1001.89 120.97Z" fill="white" fill-opacity="0.25"/>
<path d="M992.977 126.139C992.144 124.692 991.76 123.03 991.872 121.364C991.984 119.698 992.587 118.102 993.606 116.779C994.625 115.455 996.014 114.464 997.597 113.928C999.18 113.393 1000.89 113.339 1002.5 113.772C1004.11 114.206 1005.56 115.107 1006.66 116.363C1007.77 117.619 1008.47 119.173 1008.69 120.828C1008.91 122.484 1008.63 124.167 1007.89 125.664C1007.15 127.162 1005.98 128.407 1004.54 129.243C1002.59 130.355 1000.28 130.653 998.117 130.072C995.951 129.49 994.104 128.077 992.977 126.139Z" fill="white" fill-opacity="0.25"/>
<path d="M1039.04 51.23L998.741 121.029L1001.98 122.894L1042.27 53.0951L1039.04 51.23Z" fill="white" fill-opacity="0.25"/>
<path d="M1033.28 47.9156C1034.12 46.47 1035.36 45.3045 1036.86 44.5663C1038.36 43.8281 1040.04 43.5503 1041.7 43.7681C1043.36 43.9859 1044.91 44.6895 1046.17 45.7899C1047.43 46.8904 1048.33 48.3384 1048.76 49.951C1049.2 51.5635 1049.14 53.2684 1048.61 54.8501C1048.07 56.4318 1047.08 57.8194 1045.75 58.8377C1044.43 59.8559 1042.83 60.4591 1041.16 60.571C1039.5 60.683 1037.83 60.2986 1036.39 59.4665C1035.42 58.9129 1034.58 58.1746 1033.9 57.2941C1033.22 56.4135 1032.72 55.408 1032.43 54.335C1032.15 53.262 1032.07 52.1428 1032.22 51.0412C1032.36 49.9397 1032.72 48.8775 1033.28 47.9156Z" fill="white" fill-opacity="0.25"/>
<path d="M1121.28 50.2729H1040.63V54.0054H1121.28V50.2729Z" fill="white" fill-opacity="0.25"/>
<path d="M1121.24 43.7118C1122.91 43.7118 1124.54 44.2072 1125.93 45.1354C1127.32 46.0635 1128.41 47.3828 1129.05 48.9263C1129.69 50.4698 1129.85 52.1682 1129.53 53.8068C1129.2 55.4453 1128.4 56.9504 1127.21 58.1318C1126.03 59.3131 1124.53 60.1176 1122.89 60.4436C1121.25 60.7695 1119.55 60.6022 1118 59.9629C1116.46 59.3235 1115.14 58.2409 1114.21 56.8518C1113.28 55.4626 1112.78 53.8295 1112.78 52.1588C1112.78 49.9185 1113.67 47.77 1115.26 46.1859C1116.84 44.6017 1118.99 43.7118 1121.24 43.7118Z" fill="white" fill-opacity="0.25"/>
<path d="M1122.83 51.2303L1119.6 53.0966L1159.92 122.882L1163.15 121.015L1122.83 51.2303Z" fill="white" fill-opacity="0.25"/>
<path d="M1168.77 117.692C1169.61 119.14 1169.99 120.802 1169.88 122.468C1169.77 124.134 1169.16 125.729 1168.14 127.053C1167.13 128.376 1165.74 129.368 1164.15 129.903C1162.57 130.438 1160.86 130.493 1159.25 130.059C1157.64 129.626 1156.19 128.724 1155.09 127.469C1153.99 126.213 1153.28 124.659 1153.06 123.003C1152.84 121.348 1153.12 119.665 1153.86 118.167C1154.6 116.669 1155.77 115.424 1157.21 114.588C1159.16 113.476 1161.47 113.178 1163.63 113.76C1165.8 114.341 1167.65 115.755 1168.77 117.692Z" fill="white" fill-opacity="0.25"/>
<path d="M1159.98 121.042L1119.69 190.841L1122.92 192.706L1163.22 122.907L1159.98 121.042Z" fill="white" fill-opacity="0.25"/>
<path d="M1128.55 195.837C1127.71 197.281 1126.46 198.444 1124.96 199.179C1123.46 199.914 1121.77 200.187 1120.12 199.965C1118.46 199.742 1116.9 199.034 1115.65 197.929C1114.4 196.825 1113.5 195.374 1113.07 193.759C1112.64 192.145 1112.7 190.439 1113.24 188.859C1113.78 187.278 1114.78 185.894 1116.11 184.88C1117.44 183.866 1119.04 183.268 1120.71 183.163C1122.37 183.057 1124.04 183.448 1125.48 184.286C1126.44 184.843 1127.29 185.584 1127.96 186.466C1128.63 187.348 1129.13 188.354 1129.41 189.427C1129.7 190.5 1129.77 191.618 1129.62 192.718C1129.47 193.818 1129.11 194.878 1128.55 195.837Z" fill="white" fill-opacity="0.25"/>
<path d="M880.948 51.191L877.713 53.0572L918.035 122.842L921.27 120.976L880.948 51.191Z" fill="white" fill-opacity="0.25"/>
<path d="M872.031 56.3627C871.198 54.915 870.814 53.2532 870.926 51.5871C871.038 49.9211 871.641 48.3256 872.66 47.0022C873.68 45.6788 875.068 44.6869 876.651 44.1518C878.234 43.6167 879.94 43.5623 881.554 43.9956C883.168 44.429 884.617 45.3305 885.718 46.5863C886.82 47.8422 887.524 49.396 887.742 51.0516C887.96 52.7071 887.682 54.39 886.943 55.8877C886.204 57.3855 885.038 58.6308 883.591 59.4665C882.63 60.0278 881.567 60.3928 880.463 60.5405C879.36 60.6882 878.238 60.6156 877.162 60.3269C876.087 60.0382 875.08 59.5392 874.199 58.8587C873.318 58.1782 872.581 57.3298 872.031 56.3627Z" fill="white" fill-opacity="0.25"/>
<path d="M919.218 -24.1931L878.896 45.9124L882.146 47.7786L922.468 -22.3269L919.218 -24.1931Z" fill="white" fill-opacity="0.25"/>
<path d="M1001.91 -18.5539L998.675 -16.6877L1039 53.0975L1042.23 51.2312L1001.91 -18.5539Z" fill="white" fill-opacity="0.25"/>
<path d="M1047.95 47.9156C1048.78 49.3605 1049.18 51.0214 1049.07 52.6885C1048.96 54.3556 1048.37 55.9539 1047.35 57.2814C1046.34 58.6089 1044.95 59.6061 1043.37 60.1468C1041.79 60.6874 1040.08 60.7474 1038.47 60.319C1036.85 59.8907 1035.4 58.9933 1034.29 57.7402C1033.19 56.4872 1032.48 54.9348 1032.25 53.2792C1032.03 51.6237 1032.31 49.9394 1033.04 48.4393C1033.78 46.9391 1034.94 45.6904 1036.39 44.8511C1038.33 43.7355 1040.63 43.4315 1042.8 44.0055C1044.96 44.5794 1046.81 45.9848 1047.95 47.9156Z" fill="white" fill-opacity="0.25"/>
<path d="M1039.04 51.23L998.741 121.029L1001.98 122.894L1042.27 53.0951L1039.04 51.23Z" fill="white" fill-opacity="0.25"/>
<path d="M1007.56 126.139C1006.72 127.584 1005.48 128.746 1003.97 129.481C1002.47 130.216 1000.79 130.489 999.13 130.267C997.473 130.044 995.92 129.336 994.665 128.232C993.411 127.127 992.513 125.676 992.085 124.061C991.656 122.447 991.716 120.741 992.257 119.161C992.798 117.58 993.796 116.196 995.125 115.182C996.453 114.168 998.053 113.57 999.721 113.465C1001.39 113.359 1003.05 113.75 1004.5 114.588C1005.46 115.145 1006.3 115.886 1006.97 116.768C1007.65 117.65 1008.14 118.656 1008.43 119.729C1008.71 120.802 1008.78 121.92 1008.63 123.02C1008.49 124.12 1008.12 125.18 1007.56 126.139Z" fill="white" fill-opacity="0.25"/>
<path d="M1000.33 120.05H919.686V123.782H1000.33V120.05Z" fill="white" fill-opacity="0.25"/>
<path d="M919.686 130.382C918.014 130.382 916.38 129.887 914.989 128.959C913.599 128.031 912.516 126.711 911.876 125.168C911.236 123.624 911.069 121.926 911.395 120.287C911.721 118.649 912.526 117.144 913.708 115.962C914.891 114.781 916.397 113.977 918.037 113.651C919.677 113.325 921.376 113.492 922.921 114.131C924.466 114.771 925.786 115.853 926.715 117.242C927.644 118.632 928.14 120.265 928.14 121.935C928.129 124.173 927.235 126.315 925.652 127.897C924.069 129.479 921.925 130.372 919.686 130.382Z" fill="white" fill-opacity="0.25"/>
<path d="M760.006 120.97L756.771 122.836L797.093 192.621L800.328 190.755L760.006 120.97Z" fill="white" fill-opacity="0.25"/>
<path d="M751.085 126.139C750.253 124.692 749.868 123.03 749.98 121.364C750.092 119.698 750.696 118.102 751.715 116.779C752.734 115.455 754.122 114.464 755.705 113.928C757.288 113.393 758.994 113.339 760.608 113.772C762.222 114.206 763.671 115.107 764.773 116.363C765.874 117.619 766.578 119.173 766.796 120.828C767.014 122.484 766.736 124.167 765.997 125.664C765.258 127.162 764.092 128.407 762.645 129.243C760.699 130.355 758.391 130.653 756.225 130.072C754.059 129.49 752.212 128.077 751.085 126.139Z" fill="white" fill-opacity="0.25"/>
<path d="M797.141 51.2247L756.844 121.024L760.08 122.889L800.377 53.0897L797.141 51.2247Z" fill="white" fill-opacity="0.25"/>
<path d="M791.309 47.9156C792.145 46.47 793.391 45.3045 794.89 44.5663C796.389 43.8281 798.073 43.5503 799.73 43.7681C801.387 43.9859 802.942 44.6895 804.199 45.7899C805.456 46.8904 806.358 48.3384 806.792 49.951C807.225 51.5635 807.171 53.2684 806.635 54.8501C806.1 56.4318 805.107 57.8194 803.783 58.8377C802.458 59.8559 800.861 60.4591 799.194 60.571C797.527 60.683 795.864 60.2986 794.415 59.4665C793.451 58.9129 792.606 58.1746 791.928 57.2941C791.249 56.4135 790.752 55.408 790.463 54.335C790.175 53.262 790.101 52.1428 790.246 51.0412C790.391 49.9397 790.752 48.8775 791.309 47.9156Z" fill="white" fill-opacity="0.25"/>
<path d="M879.384 50.2729H798.74V54.0054H879.384V50.2729Z" fill="white" fill-opacity="0.25"/>
<path d="M879.345 43.7118C881.017 43.7118 882.651 44.2072 884.041 45.1354C885.431 46.0635 886.515 47.3828 887.155 48.9263C887.795 50.4698 887.962 52.1682 887.636 53.8068C887.31 55.4453 886.504 56.9504 885.322 58.1318C884.14 59.3131 882.634 60.1176 880.994 60.4436C879.354 60.7695 877.654 60.6022 876.109 59.9629C874.565 59.3235 873.244 58.2409 872.316 56.8518C871.387 55.4626 870.891 53.8295 870.891 52.1588C870.891 49.9185 871.782 47.77 873.367 46.1859C874.952 44.6017 877.103 43.7118 879.345 43.7118Z" fill="white" fill-opacity="0.25"/>
<path d="M880.948 51.191L877.713 53.0572L918.035 122.842L921.27 120.976L880.948 51.191Z" fill="white" fill-opacity="0.25"/>
<path d="M927 117.692C927.832 119.14 928.217 120.802 928.105 122.468C927.993 124.134 927.389 125.729 926.37 127.053C925.351 128.376 923.963 129.368 922.38 129.903C920.797 130.438 919.091 130.493 917.477 130.059C915.863 129.626 914.414 128.724 913.312 127.469C912.211 126.213 911.507 124.659 911.289 123.003C911.071 121.348 911.349 119.665 912.088 118.167C912.827 116.669 913.993 115.424 915.44 114.588C917.386 113.476 919.694 113.178 921.86 113.76C924.026 114.341 925.873 115.755 927 117.692Z" fill="white" fill-opacity="0.25"/>
<path d="M918.105 121.002L877.807 190.802L881.043 192.667L921.34 122.868L918.105 121.002Z" fill="white" fill-opacity="0.25"/>
<path d="M886.658 195.837C885.818 197.281 884.568 198.444 883.067 199.179C881.566 199.914 879.88 200.187 878.223 199.965C876.566 199.742 875.013 199.034 873.759 197.929C872.505 196.825 871.607 195.374 871.178 193.759C870.749 192.145 870.809 190.439 871.35 188.859C871.891 187.278 872.889 185.894 874.218 184.88C875.546 183.866 877.146 183.268 878.814 183.163C880.483 183.057 882.145 183.448 883.591 184.286C884.556 184.84 885.401 185.578 886.078 186.46C886.755 187.341 887.251 188.348 887.536 189.423C887.821 190.497 887.89 191.617 887.739 192.718C887.589 193.819 887.221 194.879 886.658 195.837Z" fill="white" fill-opacity="0.25"/>
<path d="M639.064 51.191L635.829 53.0573L676.151 122.842L679.386 120.976L639.064 51.191Z" fill="white" fill-opacity="0.25"/>
<path d="M630.1 56.3627C629.267 54.915 628.883 53.2532 628.995 51.5871C629.107 49.9211 629.71 48.3256 630.729 47.0022C631.748 45.6788 633.137 44.6869 634.72 44.1518C636.303 43.6167 638.009 43.5623 639.623 43.9956C641.237 44.429 642.686 45.3305 643.787 46.5863C644.889 47.8422 645.593 49.396 645.811 51.0516C646.029 52.7071 645.751 54.39 645.012 55.8877C644.273 57.3855 643.107 58.6308 641.66 59.4665C640.699 60.0278 639.635 60.3928 638.532 60.5405C637.428 60.6882 636.306 60.6156 635.231 60.3269C634.156 60.0382 633.149 59.5392 632.268 58.8587C631.387 58.1782 630.65 57.3298 630.1 56.3627Z" fill="white" fill-opacity="0.25"/>
<path d="M676.178 -18.5533L635.881 51.246L639.116 53.1111L679.414 -16.6882L676.178 -18.5533Z" fill="white" fill-opacity="0.25"/>
<path d="M760.026 -18.5147L756.791 -16.6484L797.113 53.1367L800.348 51.2705L760.026 -18.5147Z" fill="white" fill-opacity="0.25"/>
<path d="M806.054 47.9156C806.892 49.3605 807.284 51.0214 807.178 52.6885C807.072 54.3556 806.474 55.9539 805.46 57.2814C804.445 58.6089 803.059 59.6061 801.478 60.1468C799.896 60.6874 798.189 60.7474 796.573 60.319C794.958 59.8907 793.505 58.9933 792.4 57.7402C791.294 56.4872 790.585 54.9348 790.363 53.2792C790.14 51.6237 790.414 49.9394 791.149 48.4393C791.884 46.9391 793.048 45.6904 794.494 44.8511C796.436 43.7355 798.74 43.4315 800.905 44.0055C803.07 44.5794 804.921 45.9848 806.054 47.9156Z" fill="white" fill-opacity="0.25"/>
<path d="M797.141 51.2247L756.844 121.024L760.08 122.889L800.377 53.0897L797.141 51.2247Z" fill="white" fill-opacity="0.25"/>
<path d="M765.712 126.139C764.872 127.584 763.622 128.746 762.121 129.481C760.62 130.216 758.934 130.489 757.277 130.267C755.62 130.044 754.067 129.336 752.813 128.232C751.559 127.127 750.661 125.676 750.232 124.061C749.803 122.447 749.863 120.741 750.404 119.161C750.945 117.58 751.943 116.196 753.272 115.182C754.6 114.168 756.2 113.57 757.868 113.465C759.537 113.359 761.199 113.75 762.645 114.588C763.61 115.142 764.455 115.88 765.132 116.762C765.809 117.644 766.304 118.651 766.59 119.725C766.875 120.799 766.944 121.919 766.793 123.02C766.643 124.121 766.275 125.181 765.712 126.139Z" fill="white" fill-opacity="0.25"/>
<path d="M758.438 120.05H677.794V123.782H758.438V120.05Z" fill="white" fill-opacity="0.25"/>
<path d="M677.794 130.382C676.122 130.382 674.488 129.887 673.097 128.959C671.707 128.031 670.624 126.711 669.984 125.168C669.344 123.624 669.177 121.926 669.503 120.287C669.829 118.649 670.634 117.144 671.816 115.962C672.999 114.781 674.505 113.977 676.145 113.651C677.785 113.325 679.484 113.492 681.029 114.131C682.574 114.771 683.894 115.853 684.823 117.242C685.752 118.632 686.248 120.265 686.248 121.935C686.248 124.176 685.357 126.324 683.772 127.908C682.186 129.492 680.036 130.382 677.794 130.382Z" fill="white" fill-opacity="0.25"/>
<path d="M518.122 120.97L514.887 122.836L555.209 192.621L558.444 190.755L518.122 120.97Z" fill="white" fill-opacity="0.25"/>
<path d="M509.193 126.139C508.36 124.692 507.976 123.03 508.088 121.364C508.2 119.698 508.804 118.102 509.823 116.779C510.842 115.455 512.23 114.464 513.813 113.928C515.396 113.393 517.102 113.339 518.716 113.772C520.33 114.206 521.779 115.107 522.88 116.363C523.982 117.619 524.686 119.173 524.904 120.828C525.122 122.484 524.844 124.167 524.105 125.664C523.366 127.162 522.2 128.407 520.753 129.243C518.806 130.355 516.499 130.653 514.333 130.072C512.167 129.49 510.32 128.077 509.193 126.139Z" fill="white" fill-opacity="0.25"/>
<path d="M555.244 51.2192L514.946 121.018L518.182 122.884L558.479 53.0843L555.244 51.2192Z" fill="white" fill-opacity="0.25"/>
<path d="M549.495 47.9156C550.332 46.47 551.578 45.3045 553.077 44.5663C554.576 43.8281 556.26 43.5503 557.917 43.7681C559.574 43.9859 561.129 44.6895 562.386 45.7899C563.642 46.8904 564.545 48.3384 564.978 49.951C565.412 51.5635 565.357 53.2684 564.822 54.8501C564.286 56.4318 563.294 57.8194 561.969 58.8377C560.645 59.8559 559.048 60.4591 557.381 60.571C555.713 60.683 554.05 60.2986 552.602 59.4665C551.638 58.9129 550.792 58.1746 550.114 57.2941C549.436 56.4135 548.939 55.408 548.65 54.335C548.362 53.262 548.288 52.1428 548.433 51.0412C548.578 49.9397 548.939 48.8775 549.495 47.9156Z" fill="white" fill-opacity="0.25"/>
<path d="M637.492 50.2729H556.848V54.0054H637.492V50.2729Z" fill="white" fill-opacity="0.25"/>
<path d="M637.453 43.7118C639.125 43.7118 640.759 44.2072 642.149 45.1354C643.539 46.0635 644.623 47.3828 645.263 48.9263C645.903 50.4698 646.07 52.1682 645.744 53.8068C645.418 55.4453 644.613 56.9504 643.43 58.1318C642.248 59.3131 640.742 60.1176 639.102 60.4436C637.462 60.7695 635.762 60.6022 634.218 59.9629C632.673 59.3235 631.353 58.2409 630.424 56.8518C629.495 55.4626 628.999 53.8295 628.999 52.1588C628.999 49.9185 629.89 47.77 631.475 46.1859C633.06 44.6017 635.211 43.7118 637.453 43.7118Z" fill="white" fill-opacity="0.25"/>
<path d="M639.064 51.191L635.829 53.0573L676.151 122.842L679.386 120.976L639.064 51.191Z" fill="white" fill-opacity="0.25"/>
<path d="M685.147 117.692C685.979 119.14 686.364 120.802 686.252 122.468C686.14 124.134 685.536 125.729 684.517 127.053C683.498 128.376 682.11 129.368 680.527 129.903C678.944 130.438 677.238 130.493 675.624 130.059C674.01 129.626 672.561 128.724 671.459 127.469C670.358 126.213 669.654 124.659 669.436 123.003C669.218 121.348 669.496 119.665 670.235 118.167C670.974 116.669 672.14 115.424 673.587 114.588C675.533 113.476 677.841 113.178 680.007 113.76C682.173 114.341 684.02 115.755 685.147 117.692Z" fill="white" fill-opacity="0.25"/>
<path d="M676.207 120.997L635.91 190.796L639.145 192.661L679.443 122.862L676.207 120.997Z" fill="white" fill-opacity="0.25"/>
<path d="M644.766 195.837C643.926 197.281 642.676 198.444 641.175 199.179C639.674 199.914 637.988 200.187 636.331 199.965C634.674 199.742 633.121 199.034 631.867 197.929C630.613 196.825 629.715 195.374 629.286 193.759C628.857 192.145 628.917 190.439 629.458 188.859C629.999 187.278 630.997 185.894 632.326 184.88C633.654 183.866 635.254 183.268 636.922 183.163C638.591 183.057 640.253 183.448 641.699 184.286C642.664 184.84 643.509 185.578 644.186 186.46C644.863 187.341 645.358 188.348 645.644 189.423C645.929 190.497 645.998 191.617 645.848 192.718C645.697 193.819 645.329 194.879 644.766 195.837Z" fill="white" fill-opacity="0.25"/>
<path d="M397.181 51.2303L393.946 53.0965L434.268 122.882L437.503 121.015L397.181 51.2303Z" fill="white" fill-opacity="0.25"/>
<path d="M388.247 56.3627C387.415 54.915 387.03 53.2532 387.142 51.5871C387.254 49.9211 387.858 48.3256 388.877 47.0022C389.896 45.6788 391.284 44.6869 392.867 44.1518C394.45 43.6167 396.156 43.5623 397.77 43.9956C399.384 44.429 400.833 45.3305 401.934 46.5863C403.036 47.8422 403.74 49.396 403.958 51.0516C404.176 52.7071 403.898 54.39 403.159 55.8877C402.42 57.3855 401.254 58.6308 399.807 59.4665C398.846 60.0278 397.783 60.3928 396.679 60.5405C395.576 60.6882 394.454 60.6156 393.378 60.3269C392.303 60.0382 391.296 59.5392 390.415 58.8587C389.534 58.1782 388.798 57.3298 388.247 56.3627Z" fill="white" fill-opacity="0.25"/>
<path d="M434.241 -18.5979L393.944 51.2013L397.179 53.0663L437.477 -16.7328L434.241 -18.5979Z" fill="white" fill-opacity="0.25"/>
<path d="M518.142 -18.5146L514.907 -16.6484L555.229 53.1367L558.464 51.2705L518.142 -18.5146Z" fill="white" fill-opacity="0.25"/>
<path d="M564.161 47.9156C565 49.3605 565.392 51.0214 565.286 52.6885C565.18 54.3556 564.582 55.9539 563.568 57.2814C562.553 58.6089 561.167 59.6061 559.585 60.1468C558.004 60.6874 556.297 60.7474 554.681 60.319C553.066 59.8907 551.613 58.9933 550.508 57.7402C549.402 56.4872 548.693 54.9348 548.471 53.2792C548.248 51.6237 548.522 49.9394 549.257 48.4393C549.992 46.9391 551.156 45.6904 552.602 44.8511C554.543 43.7355 556.848 43.4315 559.013 44.0055C561.178 44.5794 563.028 45.9848 564.161 47.9156Z" fill="white" fill-opacity="0.25"/>
<path d="M555.244 51.2192L514.946 121.018L518.182 122.884L558.479 53.0843L555.244 51.2192Z" fill="white" fill-opacity="0.25"/>
<path d="M523.938 126.139C523.102 127.585 521.855 128.75 520.356 129.489C518.858 130.227 517.173 130.505 515.517 130.287C513.86 130.069 512.305 129.365 511.048 128.265C509.791 127.165 508.889 125.717 508.455 124.104C508.021 122.491 508.076 120.787 508.611 119.205C509.147 117.623 510.14 116.235 511.464 115.217C512.788 114.199 514.385 113.596 516.053 113.484C517.72 113.372 519.383 113.756 520.832 114.588C522.771 115.714 524.186 117.56 524.768 119.724C525.349 121.888 525.051 124.194 523.938 126.139Z" fill="white" fill-opacity="0.25"/>
<path d="M516.546 120.05H435.902V123.782H516.546V120.05Z" fill="white" fill-opacity="0.25"/>
<path d="M435.902 130.382C434.23 130.382 432.596 129.887 431.206 128.959C429.815 128.031 428.732 126.711 428.092 125.168C427.452 123.624 427.285 121.926 427.611 120.287C427.937 118.649 428.742 117.144 429.925 115.962C431.107 114.781 432.613 113.977 434.253 113.651C435.893 113.325 437.592 113.492 439.137 114.131C440.682 114.771 442.002 115.853 442.931 117.242C443.86 118.632 444.356 120.265 444.356 121.935C444.356 124.176 443.465 126.324 441.88 127.908C440.294 129.492 438.144 130.382 435.902 130.382Z" fill="white" fill-opacity="0.25"/>
<path d="M276.239 120.97L273.004 122.836L313.326 192.621L316.561 190.755L276.239 120.97Z" fill="white" fill-opacity="0.25"/>
<path d="M267.301 126.139C266.468 124.692 266.084 123.03 266.196 121.364C266.308 119.698 266.911 118.102 267.93 116.779C268.949 115.455 270.338 114.464 271.921 113.928C273.504 113.393 275.21 113.339 276.824 113.772C278.438 114.206 279.887 115.107 280.988 116.363C282.09 117.619 282.794 119.173 283.012 120.828C283.23 122.484 282.952 124.167 282.213 125.664C281.474 127.162 280.308 128.407 278.861 129.243C276.914 130.355 274.606 130.653 272.441 130.072C270.275 129.49 268.428 128.077 267.301 126.139Z" fill="white" fill-opacity="0.25"/>
<path d="M313.346 51.2138L273.049 121.013L276.284 122.878L316.582 53.0789L313.346 51.2138Z" fill="white" fill-opacity="0.25"/>
<path d="M307.682 47.9156C308.518 46.47 309.765 45.3045 311.264 44.5663C312.763 43.8281 314.447 43.5503 316.104 43.7681C317.76 43.9859 319.315 44.6895 320.572 45.7899C321.829 46.8904 322.731 48.3384 323.165 49.951C323.599 51.5635 323.544 53.2684 323.009 54.8501C322.473 56.4318 321.481 57.8194 320.156 58.8377C318.832 59.8559 317.235 60.4591 315.568 60.571C313.9 60.683 312.237 60.2986 310.788 59.4665C309.824 58.9129 308.979 58.1746 308.301 57.2941C307.623 56.4135 307.125 55.408 306.837 54.335C306.548 53.262 306.475 52.1428 306.62 51.0412C306.765 49.9397 307.126 48.8775 307.682 47.9156Z" fill="white" fill-opacity="0.25"/>
<path d="M395.6 50.2729H314.956V54.0054H395.6V50.2729Z" fill="white" fill-opacity="0.25"/>
<path d="M395.561 43.7118C397.233 43.7118 398.867 44.2072 400.257 45.1354C401.647 46.0635 402.731 47.3828 403.371 48.9263C404.011 50.4698 404.178 52.1682 403.852 53.8068C403.526 55.4453 402.72 56.9504 401.538 58.1318C400.356 59.3131 398.85 60.1176 397.21 60.4436C395.57 60.7695 393.87 60.6022 392.326 59.9629C390.781 59.3235 389.461 58.2409 388.532 56.8518C387.603 55.4626 387.107 53.8295 387.107 52.1588C387.107 51.0495 387.326 49.9511 387.75 48.9263C388.175 47.9014 388.798 46.9702 389.583 46.1859C390.368 45.4015 391.3 44.7793 392.326 44.3548C393.351 43.9303 394.45 43.7118 395.561 43.7118Z" fill="white" fill-opacity="0.25"/>
<path d="M397.181 51.2303L393.946 53.0965L434.268 122.882L437.503 121.015L397.181 51.2303Z" fill="white" fill-opacity="0.25"/>
<path d="M443.216 117.692C444.048 119.14 444.433 120.802 444.321 122.468C444.209 124.134 443.605 125.729 442.586 127.053C441.567 128.376 440.178 129.368 438.595 129.903C437.013 130.438 435.306 130.493 433.693 130.059C432.079 129.626 430.63 128.724 429.528 127.469C428.427 126.213 427.723 124.659 427.505 123.003C427.287 121.348 427.565 119.665 428.304 118.167C429.042 116.669 430.209 115.424 431.656 114.588C433.602 113.476 435.91 113.178 438.076 113.76C440.241 114.341 442.089 115.755 443.216 117.692Z" fill="white" fill-opacity="0.25"/>
<path d="M434.27 120.952L393.973 190.752L397.208 192.617L437.506 122.817L434.27 120.952Z" fill="white" fill-opacity="0.25"/>
<path d="M402.913 195.837C402.077 197.283 400.831 198.448 399.332 199.187C397.833 199.925 396.148 200.203 394.492 199.985C392.835 199.767 391.28 199.063 390.023 197.963C388.766 196.863 387.864 195.415 387.43 193.802C386.997 192.189 387.051 190.485 387.587 188.903C388.122 187.321 389.115 185.934 390.439 184.915C391.764 183.897 393.36 183.294 395.028 183.182C396.695 183.07 398.358 183.454 399.807 184.286C401.746 185.412 403.161 187.258 403.743 189.422C404.325 191.586 404.026 193.892 402.913 195.837Z" fill="white" fill-opacity="0.25"/>
<path d="M395.6 189.826H314.956V193.559H395.6V189.826Z" fill="white" fill-opacity="0.25"/>
<path d="M314.956 200.159C313.276 200.159 311.634 199.658 310.24 198.721C308.846 197.784 307.763 196.452 307.129 194.898C306.495 193.343 306.34 191.634 306.682 189.99C307.025 188.347 307.85 186.842 309.052 185.669C310.254 184.496 311.778 183.707 313.431 183.404C315.083 183.101 316.789 183.296 318.33 183.966C319.871 184.635 321.177 185.748 322.082 187.163C322.987 188.578 323.449 190.23 323.41 191.908C323.358 194.115 322.445 196.213 320.865 197.755C319.286 199.297 317.165 200.16 314.956 200.159Z" fill="white" fill-opacity="0.25"/>
<path d="M155.257 51.2304L152.022 53.0966L192.344 122.882L195.579 121.015L155.257 51.2304Z" fill="white" fill-opacity="0.25"/>
<path d="M146.473 56.3627C145.64 54.915 145.256 53.2532 145.368 51.5871C145.48 49.9211 146.083 48.3256 147.102 47.0022C148.121 45.6788 149.51 44.6869 151.093 44.1518C152.676 43.6167 154.382 43.5623 155.996 43.9956C157.61 44.429 159.059 45.3305 160.16 46.5863C161.262 47.8422 161.966 49.396 162.184 51.0516C162.402 52.7071 162.124 54.39 161.385 55.8877C160.646 57.3855 159.48 58.6308 158.033 59.4665C157.072 60.0278 156.008 60.3928 154.905 60.5405C153.801 60.6882 152.679 60.6156 151.604 60.3269C150.529 60.0382 149.522 59.5392 148.641 58.8587C147.76 58.1782 147.023 57.3298 146.473 56.3627Z" fill="white" fill-opacity="0.25"/>
<path d="M276.219 -18.5146L272.984 -16.6484L313.306 53.1367L316.541 51.2705L276.219 -18.5146Z" fill="white" fill-opacity="0.25"/>
<path d="M322.269 47.9156C323.108 49.3605 323.499 51.0214 323.394 52.6885C323.288 54.3556 322.69 55.9539 321.675 57.2814C320.661 58.6089 319.275 59.6061 317.693 60.1468C316.112 60.6874 314.405 60.7474 312.789 60.319C311.173 59.8907 309.721 58.9933 308.616 57.7402C307.51 56.4872 306.801 54.9348 306.579 53.2792C306.356 51.6237 306.63 49.9394 307.365 48.4393C308.1 46.9391 309.264 45.6904 310.709 44.8511C312.651 43.7355 314.956 43.4315 317.121 44.0055C319.286 44.5794 321.136 45.9848 322.269 47.9156Z" fill="white" fill-opacity="0.25"/>
<path d="M313.346 51.2138L273.049 121.013L276.284 122.878L316.582 53.0789L313.346 51.2138Z" fill="white" fill-opacity="0.25"/>
<path d="M281.967 126.139C281.131 127.585 279.885 128.75 278.386 129.489C276.887 130.227 275.203 130.505 273.546 130.287C271.889 130.069 270.334 129.365 269.077 128.265C267.82 127.165 266.918 125.717 266.484 124.104C266.051 122.491 266.105 120.787 266.641 119.205C267.176 117.623 268.169 116.235 269.493 115.217C270.818 114.199 272.414 113.596 274.082 113.484C275.749 113.372 277.412 113.756 278.861 114.588C280.8 115.714 282.215 117.56 282.797 119.724C283.379 121.888 283.081 124.194 281.967 126.139Z" fill="white" fill-opacity="0.25"/>
<path d="M274.654 120.05H194.01V123.782H274.654V120.05Z" fill="white" fill-opacity="0.25"/>
<path d="M194.01 130.382C192.338 130.382 190.704 129.887 189.313 128.959C187.923 128.031 186.84 126.711 186.2 125.168C185.56 123.624 185.393 121.926 185.719 120.287C186.045 118.649 186.85 117.144 188.032 115.962C189.215 114.781 190.721 113.977 192.361 113.651C194.001 113.325 195.7 113.492 197.245 114.131C198.79 114.771 200.11 115.853 201.039 117.242C201.968 118.632 202.464 120.265 202.464 121.935C202.464 124.176 201.573 126.324 199.988 127.908C198.402 129.492 196.252 130.382 194.01 130.382Z" fill="white" fill-opacity="0.25"/>
<path d="M34.3157 121.009L31.0808 122.876L71.4027 192.661L74.6376 190.794L34.3157 121.009Z" fill="white" fill-opacity="0.25"/>
<path d="M25.4091 126.139C24.5764 124.692 24.1917 123.03 24.3037 121.364C24.4157 119.698 25.0194 118.102 26.0384 116.779C27.0575 115.455 28.4461 114.464 30.0291 113.928C31.612 113.393 33.3182 113.339 34.932 113.772C36.5459 114.206 37.995 115.107 39.0963 116.363C40.1977 117.619 40.9018 119.173 41.1197 120.828C41.3377 122.484 41.0598 124.167 40.321 125.664C39.5822 127.162 38.4157 128.407 36.9689 129.243C35.0223 130.355 32.7144 130.653 30.5488 130.072C28.3831 129.49 26.5356 128.077 25.4091 126.139Z" fill="white" fill-opacity="0.25"/>
<path d="M71.4489 51.2083L31.1514 121.008L34.3869 122.873L74.6844 53.0734L71.4489 51.2083Z" fill="white" fill-opacity="0.25"/>
<path d="M65.7507 47.9156C66.9177 46.071 68.7539 44.7493 70.8745 44.2274C72.9951 43.7054 75.2355 44.0239 77.1264 45.1158C79.0173 46.2078 80.4119 47.9887 81.018 50.0853C81.624 52.1818 81.3945 54.4314 80.3775 56.3627C79.8474 57.3693 79.1193 58.2586 78.2368 58.9772C77.3544 59.6958 76.3358 60.229 75.2421 60.5446C74.1484 60.8602 73.0022 60.9519 71.8722 60.8141C70.7422 60.6763 69.6517 60.3119 68.6661 59.7427C67.6805 59.1735 66.8201 58.4113 66.1365 57.5017C65.4529 56.5921 64.9602 55.554 64.6879 54.4495C64.4157 53.345 64.3695 52.197 64.5521 51.0742C64.7347 49.9515 65.1424 48.8771 65.7507 47.9156Z" fill="white" fill-opacity="0.25"/>
<path d="M155.257 51.2304L152.022 53.0966L192.344 122.882L195.579 121.015L155.257 51.2304Z" fill="white" fill-opacity="0.25"/>
<path d="M201.52 117.692C202.353 119.14 202.737 120.802 202.625 122.468C202.513 124.134 201.91 125.729 200.891 127.053C199.872 128.376 198.483 129.368 196.9 129.903C195.317 130.438 193.611 130.493 191.997 130.059C190.383 129.626 188.934 128.724 187.833 127.469C186.731 126.213 186.027 124.659 185.809 123.003C185.591 121.348 185.869 119.665 186.608 118.167C187.347 116.669 188.513 115.424 189.96 114.588C191.907 113.476 194.215 113.178 196.38 113.76C198.546 114.341 200.393 115.755 201.52 117.692Z" fill="white" fill-opacity="0.25"/>
<path d="M192.412 120.986L152.115 190.785L155.35 192.65L195.648 122.851L192.412 120.986Z" fill="white" fill-opacity="0.25"/>
<path d="M161.021 195.837C160.185 197.283 158.939 198.448 157.44 199.187C155.941 199.925 154.257 200.203 152.6 199.985C150.943 199.767 149.388 199.063 148.131 197.963C146.874 196.863 145.972 195.415 145.538 193.802C145.105 192.189 145.159 190.485 145.695 188.903C146.23 187.321 147.223 185.934 148.547 184.915C149.872 183.897 151.468 183.294 153.136 183.182C154.803 183.07 156.466 183.454 157.915 184.286C159.854 185.412 161.269 187.258 161.851 189.422C162.433 191.586 162.135 193.892 161.021 195.837Z" fill="white" fill-opacity="0.25"/>
<path d="M153.708 189.826H73.064V193.559H153.708V189.826Z" fill="white" fill-opacity="0.25"/>
<path d="M73.0641 200.159C71.3839 200.159 69.7419 199.658 68.3478 198.721C66.9536 197.784 65.8706 196.452 65.237 194.898C64.6033 193.343 64.4478 191.634 64.7902 189.99C65.1327 188.347 65.9575 186.842 67.1595 185.669C68.3616 184.496 69.8862 183.707 71.5387 183.404C73.1913 183.101 74.8969 183.296 76.4377 183.966C77.9786 184.635 79.2848 185.748 80.1896 187.163C81.0944 188.578 81.5568 190.23 81.5178 191.908C81.4664 194.115 80.5531 196.213 78.9733 197.755C77.3935 199.297 75.2725 200.16 73.0641 200.159Z" fill="white" fill-opacity="0.25"/>
<path d="M71.4489 51.2083L31.1514 121.008L34.3869 122.873L74.6844 53.0734L71.4489 51.2083Z" fill="white" fill-opacity="0.25"/>
<path d="M40.0752 126.139C39.2389 127.585 37.9926 128.75 36.4937 129.489C34.9948 130.227 33.3105 130.505 31.6537 130.287C29.9969 130.069 28.4418 129.365 27.185 128.265C25.9282 127.165 25.026 125.717 24.5923 124.104C24.1587 122.491 24.2131 120.787 24.7486 119.205C25.2842 117.623 26.2769 116.235 27.6013 115.217C28.9257 114.199 30.5224 113.596 32.1897 113.484C33.8571 113.372 35.5202 113.756 36.969 114.588C38.908 115.714 40.3228 117.56 40.9048 119.724C41.4867 121.888 41.1885 124.194 40.0752 126.139Z" fill="white" fill-opacity="0.25"/>
<path d="M32.7619 120.05H-47.8818V123.782H32.7619V120.05Z" fill="white" fill-opacity="0.25"/>
<path d="M1159.98 121.042L1119.69 190.841L1122.92 192.706L1163.22 122.907L1159.98 121.042Z" fill="white" fill-opacity="0.25"/>
<path d="M1154.23 117.692C1155.06 116.247 1156.31 115.081 1157.81 114.343C1159.31 113.605 1160.99 113.327 1162.65 113.545C1164.3 113.762 1165.86 114.466 1167.12 115.567C1168.37 116.667 1169.27 118.115 1169.71 119.728C1170.14 121.34 1170.09 123.045 1169.55 124.627C1169.02 126.208 1168.02 127.596 1166.7 128.614C1165.38 129.633 1163.78 130.236 1162.11 130.348C1160.44 130.46 1158.78 130.075 1157.33 129.243C1155.39 128.118 1153.98 126.271 1153.4 124.107C1152.81 121.943 1153.11 119.637 1154.23 117.692Z" fill="white" fill-opacity="0.25"/>
<path d="M1242.18 120.05H1161.54V123.782H1242.18V120.05Z" fill="white" fill-opacity="0.25"/>
<path d="M1242.18 113.331C1243.85 113.331 1245.49 113.827 1246.88 114.755C1248.27 115.683 1249.35 117.002 1249.99 118.546C1250.63 120.089 1250.8 121.788 1250.47 123.426C1250.15 125.065 1249.34 126.57 1248.16 127.751C1246.98 128.933 1245.47 129.737 1243.83 130.063C1242.19 130.389 1240.49 130.222 1238.95 129.582C1237.4 128.943 1236.08 127.86 1235.15 126.471C1234.22 125.082 1233.73 123.449 1233.73 121.778C1233.73 119.538 1234.62 117.389 1236.21 115.805C1237.79 114.221 1239.94 113.331 1242.18 113.331Z" fill="white" fill-opacity="0.25"/>
<path d="M1243.77 120.97L1240.54 122.836L1280.86 192.621L1284.1 190.755L1243.77 120.97Z" fill="white" fill-opacity="0.25"/>
<path d="M1289.84 187.469C1290.67 188.917 1291.05 190.578 1290.94 192.244C1290.83 193.91 1290.23 195.506 1289.21 196.829C1288.19 198.153 1286.8 199.145 1285.22 199.68C1283.63 200.215 1281.93 200.269 1280.31 199.836C1278.7 199.403 1277.25 198.501 1276.15 197.245C1275.05 195.989 1274.34 194.436 1274.13 192.78C1273.91 191.124 1274.19 189.442 1274.93 187.944C1275.66 186.446 1276.83 185.201 1278.28 184.365C1280.22 183.253 1282.53 182.955 1284.7 183.536C1286.86 184.118 1288.71 185.531 1289.84 187.469Z" fill="white" fill-opacity="0.25"/>
<path d="M918.105 121.002L877.807 190.802L881.043 192.667L921.34 122.868L918.105 121.002Z" fill="white" fill-opacity="0.25"/>
<path d="M912.333 117.692C913.17 116.247 914.416 115.081 915.915 114.343C917.414 113.605 919.098 113.327 920.755 113.545C922.412 113.762 923.967 114.466 925.224 115.567C926.48 116.667 927.383 118.115 927.816 119.728C928.25 121.34 928.196 123.045 927.66 124.627C927.125 126.208 926.132 127.596 924.807 128.614C923.483 129.633 921.886 130.236 920.219 130.348C918.551 130.46 916.888 130.075 915.44 129.243C913.501 128.118 912.086 126.271 911.504 124.107C910.922 121.943 911.22 119.637 912.333 117.692Z" fill="white" fill-opacity="0.25"/>
<path d="M1000.33 120.05H919.686V123.782H1000.33V120.05Z" fill="white" fill-opacity="0.25"/>
<path d="M1000.29 113.331C1001.96 113.331 1003.58 113.823 1004.97 114.745C1006.36 115.666 1007.44 116.976 1008.08 118.51C1008.73 120.045 1008.91 121.735 1008.59 123.369C1008.28 125.003 1007.49 126.509 1006.32 127.696C1005.16 128.883 1003.66 129.7 1002.03 130.043C1000.4 130.387 998.71 130.242 997.163 129.627C995.616 129.011 994.285 127.953 993.337 126.585C992.39 125.216 991.868 123.599 991.837 121.935C991.816 120.813 992.019 119.698 992.435 118.655C992.85 117.612 993.469 116.662 994.257 115.861C995.044 115.06 995.983 114.423 997.019 113.989C998.055 113.555 999.167 113.331 1000.29 113.331Z" fill="white" fill-opacity="0.25"/>
<path d="M1001.89 120.97L998.655 122.836L1038.98 192.621L1042.21 190.755L1001.89 120.97Z" fill="white" fill-opacity="0.25"/>
<path d="M1047.95 187.469C1048.78 188.917 1049.16 190.578 1049.05 192.244C1048.94 193.91 1048.34 195.506 1047.32 196.829C1046.3 198.153 1044.91 199.145 1043.33 199.68C1041.74 200.215 1040.04 200.269 1038.42 199.836C1036.81 199.403 1035.36 198.501 1034.26 197.245C1033.16 195.989 1032.45 194.436 1032.23 192.78C1032.02 191.124 1032.29 189.442 1033.03 187.944C1033.77 186.446 1034.94 185.201 1036.39 184.365C1038.33 183.253 1040.64 182.955 1042.81 183.536C1044.97 184.118 1046.82 185.531 1047.95 187.469Z" fill="white" fill-opacity="0.25"/>
<path d="M676.207 120.997L635.91 190.796L639.145 192.661L679.443 122.862L676.207 120.997Z" fill="white" fill-opacity="0.25"/>
<path d="M670.441 117.692C671.278 116.247 672.524 115.081 674.023 114.343C675.522 113.605 677.206 113.327 678.863 113.545C680.52 113.762 682.075 114.466 683.331 115.567C684.588 116.667 685.491 118.115 685.924 119.728C686.358 121.34 686.303 123.045 685.768 124.627C685.232 126.208 684.24 127.596 682.915 128.614C681.591 129.633 679.994 130.236 678.327 130.348C676.659 130.46 674.996 130.075 673.547 129.243C671.608 128.118 670.194 126.271 669.612 124.107C669.03 121.943 669.328 119.637 670.441 117.692Z" fill="white" fill-opacity="0.25"/>
<path d="M758.438 120.05H677.794V123.782H758.438V120.05Z" fill="white" fill-opacity="0.25"/>
<path d="M758.398 113.331C760.07 113.331 761.705 113.827 763.095 114.755C764.485 115.683 765.569 117.002 766.209 118.546C766.848 120.089 767.016 121.788 766.69 123.426C766.363 125.065 765.558 126.57 764.376 127.751C763.194 128.933 761.687 129.737 760.048 130.063C758.408 130.389 756.708 130.222 755.163 129.582C753.619 128.943 752.298 127.86 751.369 126.471C750.441 125.082 749.945 123.449 749.945 121.778C749.945 119.538 750.835 117.389 752.421 115.805C754.006 114.221 756.156 113.331 758.398 113.331Z" fill="white" fill-opacity="0.25"/>
<path d="M760.006 120.97L756.771 122.836L797.093 192.621L800.328 190.755L760.006 120.97Z" fill="white" fill-opacity="0.25"/>
<path d="M806.053 187.469C806.886 188.917 807.271 190.578 807.159 192.244C807.047 193.91 806.443 195.506 805.424 196.829C804.405 198.153 803.016 199.145 801.433 199.68C799.85 200.215 798.144 200.269 796.53 199.836C794.917 199.403 793.467 198.501 792.366 197.245C791.265 195.989 790.561 194.436 790.343 192.78C790.125 191.124 790.403 189.442 791.142 187.944C791.88 186.446 793.047 185.201 794.494 184.365C796.44 183.253 798.748 182.955 800.914 183.536C803.079 184.118 804.927 185.531 806.053 187.469Z" fill="white" fill-opacity="0.25"/>
<path d="M397.181 190.788L393.946 192.655L434.268 262.44L437.503 260.573L397.181 190.788Z" fill="white" fill-opacity="0.25"/>
<path d="M388.247 195.837C387.415 194.39 387.03 192.728 387.142 191.062C387.254 189.396 387.858 187.8 388.877 186.477C389.896 185.153 391.284 184.162 392.867 183.626C394.45 183.091 396.156 183.037 397.77 183.47C399.384 183.904 400.833 184.805 401.934 186.061C403.036 187.317 403.74 188.871 403.958 190.526C404.176 192.182 403.898 193.865 403.159 195.362C402.42 196.86 401.254 198.105 399.807 198.941C397.86 200.053 395.553 200.351 393.387 199.77C391.221 199.188 389.374 197.775 388.247 195.837Z" fill="white" fill-opacity="0.25"/>
<path d="M434.27 120.952L393.973 190.752L397.208 192.617L437.506 122.817L434.27 120.952Z" fill="white" fill-opacity="0.25"/>
<path d="M428.549 117.692C429.386 116.247 430.632 115.081 432.131 114.343C433.63 113.605 435.314 113.327 436.971 113.545C438.628 113.762 440.183 114.466 441.44 115.567C442.696 116.667 443.599 118.115 444.032 119.728C444.466 121.34 444.412 123.045 443.876 124.627C443.341 126.208 442.348 127.596 441.023 128.614C439.699 129.633 438.102 130.236 436.435 130.348C434.768 130.46 433.104 130.075 431.656 129.243C429.717 128.118 428.302 126.271 427.72 124.107C427.138 121.943 427.436 119.637 428.549 117.692Z" fill="white" fill-opacity="0.25"/>
<path d="M516.546 120.05H435.902V123.782H516.546V120.05Z" fill="white" fill-opacity="0.25"/>
<path d="M516.507 113.331C518.178 113.3 519.821 113.766 521.228 114.668C522.635 115.57 523.743 116.869 524.411 118.4C525.08 119.932 525.278 121.627 524.983 123.271C524.687 124.915 523.91 126.435 522.75 127.638C521.59 128.841 520.099 129.673 518.466 130.029C516.833 130.386 515.13 130.25 513.574 129.64C512.018 129.03 510.677 127.972 509.723 126.6C508.768 125.229 508.242 123.606 508.21 121.935C508.189 120.826 508.387 119.723 508.793 118.691C509.199 117.658 509.804 116.715 510.575 115.916C511.345 115.117 512.265 114.477 513.283 114.034C514.301 113.59 515.396 113.352 516.507 113.331Z" fill="white" fill-opacity="0.25"/>
<path d="M518.122 120.97L514.887 122.836L555.209 192.621L558.444 190.755L518.122 120.97Z" fill="white" fill-opacity="0.25"/>
<path d="M564.162 187.469C564.994 188.917 565.379 190.578 565.267 192.244C565.155 193.91 564.551 195.506 563.532 196.829C562.513 198.153 561.124 199.145 559.541 199.68C557.959 200.215 556.252 200.269 554.639 199.836C553.025 199.403 551.576 198.501 550.474 197.245C549.373 195.989 548.669 194.436 548.451 192.78C548.233 191.124 548.511 189.442 549.25 187.944C549.988 186.446 551.155 185.201 552.602 184.365C554.548 183.253 556.856 182.955 559.022 183.536C561.187 184.118 563.035 185.531 564.162 187.469Z" fill="white" fill-opacity="0.25"/>
<path d="M313.274 190.705L272.989 260.512L276.225 262.376L316.51 192.57L313.274 190.705Z" fill="white" fill-opacity="0.25"/>
<path d="M307.682 187.469C308.518 186.023 309.765 184.858 311.264 184.119C312.762 183.381 314.447 183.103 316.104 183.321C317.76 183.539 319.315 184.243 320.572 185.343C321.829 186.444 322.731 187.892 323.165 189.504C323.599 191.117 323.544 192.822 323.009 194.403C322.473 195.985 321.48 197.373 320.156 198.391C318.832 199.409 317.235 200.012 315.568 200.124C313.9 200.236 312.237 199.852 310.788 199.02C308.849 197.894 307.434 196.048 306.852 193.884C306.271 191.72 306.569 189.414 307.682 187.469Z" fill="white" fill-opacity="0.25"/>
<path d="M395.6 189.826H314.956V193.559H395.6V189.826Z" fill="white" fill-opacity="0.25"/>
<path d="M395.56 183.265C397.224 183.265 398.85 183.756 400.236 184.676C401.622 185.596 402.705 186.904 403.35 188.436C403.995 189.968 404.174 191.656 403.863 193.289C403.553 194.922 402.767 196.427 401.604 197.616C400.441 198.805 398.954 199.624 397.327 199.972C395.7 200.32 394.007 200.18 392.459 199.571C390.912 198.962 389.578 197.91 388.626 196.547C387.674 195.184 387.145 193.57 387.107 191.908C387.081 190.783 387.28 189.663 387.693 188.616C388.106 187.568 388.725 186.613 389.512 185.808C390.3 185.003 391.241 184.363 392.279 183.926C393.318 183.489 394.434 183.265 395.56 183.265Z" fill="white" fill-opacity="0.25"/>
<path d="M397.181 190.788L393.946 192.655L434.268 262.44L437.503 260.573L397.181 190.788Z" fill="white" fill-opacity="0.25"/>
<path d="M443.216 257.245C444.048 258.693 444.433 260.355 444.321 262.021C444.209 263.687 443.605 265.282 442.586 266.606C441.567 267.929 440.178 268.921 438.595 269.456C437.013 269.991 435.306 270.046 433.693 269.612C432.079 269.179 430.63 268.278 429.528 267.022C428.427 265.766 427.723 264.212 427.505 262.557C427.287 260.901 427.565 259.218 428.304 257.72C429.042 256.223 430.209 254.977 431.656 254.142C433.602 253.029 435.91 252.731 438.076 253.313C440.241 253.894 442.089 255.308 443.216 257.245Z" fill="white" fill-opacity="0.25"/>
<path d="M155.297 190.788L152.062 192.655L192.384 262.44L195.619 260.573L155.297 190.788Z" fill="white" fill-opacity="0.25"/>
<path d="M146.473 195.837C145.64 194.39 145.256 192.728 145.368 191.062C145.48 189.396 146.083 187.8 147.102 186.477C148.121 185.153 149.51 184.162 151.093 183.626C152.676 183.091 154.382 183.037 155.996 183.47C157.61 183.904 159.059 184.805 160.16 186.061C161.262 187.317 161.966 188.871 162.184 190.526C162.402 192.182 162.124 193.865 161.385 195.362C160.646 196.86 159.48 198.105 158.033 198.941C156.086 200.053 153.778 200.351 151.613 199.77C149.447 199.188 147.599 197.775 146.473 195.837Z" fill="white" fill-opacity="0.25"/>
<path d="M192.412 120.986L152.115 190.785L155.35 192.65L195.648 122.851L192.412 120.986Z" fill="white" fill-opacity="0.25"/>
<path d="M186.697 117.692C187.537 116.248 188.786 115.085 190.288 114.35C191.789 113.616 193.475 113.342 195.132 113.565C196.788 113.787 198.342 114.495 199.596 115.6C200.85 116.705 201.748 118.156 202.177 119.77C202.605 121.385 202.545 123.09 202.004 124.671C201.463 126.251 200.465 127.636 199.137 128.65C197.808 129.664 196.209 130.261 194.54 130.367C192.872 130.472 191.21 130.081 189.764 129.243C188.799 128.69 187.954 127.951 187.277 127.07C186.6 126.188 186.104 125.181 185.819 124.107C185.534 123.033 185.464 121.913 185.615 120.812C185.766 119.711 186.133 118.65 186.697 117.692Z" fill="white" fill-opacity="0.25"/>
<path d="M274.654 120.05H194.01V123.782H274.654V120.05Z" fill="white" fill-opacity="0.25"/>
<path d="M274.615 113.331C276.286 113.331 277.921 113.827 279.311 114.755C280.701 115.683 281.785 117.002 282.425 118.546C283.064 120.089 283.232 121.788 282.906 123.426C282.58 125.065 281.774 126.57 280.592 127.751C279.41 128.933 277.904 129.737 276.264 130.063C274.624 130.389 272.924 130.222 271.379 129.582C269.835 128.943 268.514 127.86 267.586 126.471C266.657 125.082 266.161 123.449 266.161 121.778C266.161 119.538 267.052 117.389 268.637 115.805C270.222 114.221 272.372 113.331 274.615 113.331Z" fill="white" fill-opacity="0.25"/>
<path d="M276.239 120.97L273.004 122.836L313.326 192.621L316.561 190.755L276.239 120.97Z" fill="white" fill-opacity="0.25"/>
<path d="M322.269 187.469C323.102 188.917 323.487 190.578 323.375 192.244C323.263 193.91 322.659 195.506 321.64 196.829C320.621 198.153 319.232 199.145 317.649 199.68C316.066 200.215 314.36 200.269 312.746 199.836C311.133 199.403 309.683 198.501 308.582 197.245C307.481 195.989 306.777 194.436 306.559 192.78C306.341 191.124 306.619 189.442 307.358 187.944C308.096 186.446 309.263 185.201 310.71 184.365C312.656 183.253 314.964 182.955 317.13 183.536C319.295 184.118 321.143 185.531 322.269 187.469Z" fill="white" fill-opacity="0.25"/>
<path d="M313.274 190.705L272.989 260.512L276.225 262.376L316.51 192.57L313.274 190.705Z" fill="white" fill-opacity="0.25"/>
<path d="M281.967 265.692C281.131 267.138 279.885 268.304 278.386 269.042C276.887 269.78 275.203 270.058 273.546 269.84C271.889 269.622 270.334 268.919 269.077 267.818C267.82 266.718 266.918 265.27 266.484 263.657C266.051 262.045 266.105 260.34 266.641 258.758C267.176 257.176 268.169 255.789 269.493 254.77C270.818 253.752 272.414 253.149 274.082 253.037C275.749 252.925 277.412 253.309 278.861 254.142C280.8 255.267 282.215 257.113 282.797 259.277C283.379 261.441 283.081 263.747 281.967 265.692Z" fill="white" fill-opacity="0.25"/>
<path d="M274.654 259.603H194.01V263.335H274.654V259.603Z" fill="white" fill-opacity="0.25"/>
<path d="M194.01 269.936C192.327 269.943 190.68 269.451 189.277 268.522C187.874 267.592 186.78 266.267 186.132 264.715C185.484 263.163 185.313 261.453 185.639 259.803C185.966 258.154 186.775 256.638 187.966 255.449C189.156 254.259 190.673 253.45 192.324 253.124C193.975 252.798 195.686 252.969 197.239 253.617C198.793 254.264 200.119 255.358 201.049 256.759C201.979 258.161 202.472 259.807 202.464 261.489C202.464 263.729 201.573 265.877 199.988 267.462C198.402 269.046 196.252 269.936 194.01 269.936Z" fill="white" fill-opacity="0.25"/>
<path d="M34.3157 260.528L31.0808 262.394L71.4027 332.179L74.6376 330.313L34.3157 260.528Z" fill="white" fill-opacity="0.25"/>
<path d="M25.4091 265.692C24.5764 264.245 24.1917 262.583 24.3037 260.917C24.4157 259.251 25.0194 257.655 26.0384 256.332C27.0575 255.009 28.4461 254.017 30.0291 253.482C31.612 252.946 33.3182 252.892 34.932 253.325C36.5459 253.759 37.995 254.66 39.0963 255.916C40.1977 257.172 40.9018 258.726 41.1197 260.381C41.3377 262.037 41.0598 263.72 40.321 265.217C39.5822 266.715 38.4157 267.961 36.9689 268.796C35.0223 269.909 32.7144 270.207 30.5488 269.625C28.3831 269.044 26.5356 267.63 25.4091 265.692Z" fill="white" fill-opacity="0.25"/>
<path d="M71.4133 190.721L31.1279 260.527L34.3638 262.392L74.6491 192.586L71.4133 190.721Z" fill="white" fill-opacity="0.25"/>
<path d="M65.7508 187.469C66.5907 186.025 67.8403 184.862 69.3417 184.127C70.843 183.392 72.5287 183.119 74.1855 183.341C75.8423 183.564 77.3959 184.272 78.6499 185.377C79.9039 186.481 80.802 187.932 81.2307 189.547C81.6594 191.162 81.5994 192.867 81.0583 194.447C80.5172 196.028 79.5193 197.412 78.1907 198.426C76.8622 199.44 75.2626 200.038 73.5942 200.143C71.9259 200.249 70.2636 199.858 68.8177 199.02C67.8531 198.467 67.0078 197.728 66.3307 196.846C65.6536 195.965 65.1581 194.958 64.8729 193.883C64.5877 192.809 64.5185 191.689 64.6691 190.588C64.8198 189.487 65.1874 188.427 65.7508 187.469Z" fill="white" fill-opacity="0.25"/>
<path d="M153.708 189.826H73.064V193.559H153.708V189.826Z" fill="white" fill-opacity="0.25"/>
<path d="M153.668 183.265C155.332 183.265 156.958 183.756 158.344 184.676C159.729 185.596 160.813 186.904 161.458 188.436C162.103 189.968 162.282 191.656 161.971 193.289C161.661 194.922 160.875 196.427 159.712 197.616C158.549 198.805 157.061 199.624 155.435 199.972C153.808 200.32 152.115 200.18 150.567 199.571C149.02 198.962 147.686 197.91 146.734 196.547C145.782 195.184 145.253 193.57 145.215 191.908C145.188 190.783 145.388 189.663 145.801 188.616C146.214 187.568 146.833 186.613 147.62 185.808C148.408 185.003 149.349 184.363 150.387 183.926C151.426 183.489 152.541 183.265 153.668 183.265Z" fill="white" fill-opacity="0.25"/>
<path d="M155.297 190.788L152.062 192.655L192.384 262.44L195.619 260.573L155.297 190.788Z" fill="white" fill-opacity="0.25"/>
<path d="M201.52 257.245C202.353 258.693 202.737 260.355 202.625 262.021C202.513 263.687 201.91 265.282 200.891 266.606C199.872 267.929 198.483 268.921 196.9 269.456C195.317 269.991 193.611 270.046 191.997 269.612C190.383 269.179 188.934 268.278 187.833 267.022C186.731 265.766 186.027 264.212 185.809 262.557C185.591 260.901 185.869 259.218 186.608 257.72C187.347 256.223 188.513 254.977 189.96 254.142C191.907 253.029 194.215 252.731 196.38 253.313C198.546 253.894 200.393 255.308 201.52 257.245Z" fill="white" fill-opacity="0.25"/>
<path d="M192.364 260.478L152.079 330.284L155.315 332.149L195.6 262.342L192.364 260.478Z" fill="white" fill-opacity="0.25"/>
<path d="M32.7619 120.05H-47.8818V123.782H32.7619V120.05Z" fill="white" fill-opacity="0.25"/>
<path d="M32.7225 113.331C34.3944 113.331 36.0289 113.827 37.4191 114.755C38.8092 115.683 39.8927 117.002 40.5326 118.546C41.1724 120.089 41.3399 121.788 41.0137 123.426C40.6875 125.065 39.8824 126.57 38.7001 127.751C37.5178 128.933 36.0115 129.737 34.3717 130.063C32.7318 130.389 31.0321 130.222 29.4874 129.582C27.9427 128.943 26.6224 127.86 25.6935 126.471C24.7646 125.082 24.2688 123.449 24.2688 121.778C24.2688 119.538 25.1594 117.389 26.7448 115.805C28.3302 114.221 30.4804 113.331 32.7225 113.331Z" fill="white" fill-opacity="0.25"/>
<path d="M34.3157 121.009L31.0808 122.876L71.4027 192.661L74.6376 190.794L34.3157 121.009Z" fill="white" fill-opacity="0.25"/>
<path d="M80.3774 187.469C81.2101 188.917 81.5948 190.578 81.4827 192.244C81.3707 193.91 80.7671 195.506 79.7481 196.829C78.729 198.153 77.3403 199.145 75.7573 199.68C74.1744 200.215 72.4682 200.269 70.8544 199.836C69.2405 199.403 67.7914 198.501 66.6901 197.245C65.5888 195.989 64.8847 194.436 64.6667 192.78C64.4487 191.124 64.7267 189.442 65.4655 187.944C66.2043 186.446 67.3707 185.201 68.8175 184.365C70.7641 183.253 73.072 182.955 75.2377 183.536C77.4033 184.118 79.2509 185.531 80.3774 187.469Z" fill="white" fill-opacity="0.25"/>
<path d="M71.4133 190.721L31.1279 260.527L34.3638 262.392L74.6491 192.586L71.4133 190.721Z" fill="white" fill-opacity="0.25"/>
<path d="M40.0752 265.692C39.2389 267.138 37.9926 268.304 36.4937 269.042C34.9948 269.78 33.3105 270.058 31.6537 269.84C29.9969 269.622 28.4418 268.919 27.185 267.818C25.9282 266.718 25.026 265.27 24.5923 263.657C24.1587 262.045 24.2131 260.34 24.7486 258.758C25.2842 257.176 26.2769 255.789 27.6013 254.77C28.9257 253.752 30.5224 253.149 32.1897 253.037C33.8571 252.925 35.5202 253.309 36.969 254.142C38.908 255.267 40.3228 257.113 40.9048 259.277C41.4867 261.441 41.1885 263.747 40.0752 265.692Z" fill="white" fill-opacity="0.25"/>
<path d="M32.7619 259.603H-47.8818V263.335H32.7619V259.603Z" fill="white" fill-opacity="0.25"/>
<path d="M192.364 260.478L152.079 330.284L155.315 332.149L195.6 262.342L192.364 260.478Z" fill="white" fill-opacity="0.25"/>
<path d="M186.697 257.245C187.537 255.801 188.786 254.638 190.288 253.904C191.789 253.169 193.475 252.895 195.132 253.118C196.788 253.34 198.342 254.049 199.596 255.153C200.85 256.258 201.748 257.709 202.177 259.324C202.605 260.938 202.545 262.643 202.004 264.224C201.463 265.804 200.465 267.189 199.137 268.203C197.808 269.217 196.209 269.814 194.54 269.92C192.872 270.026 191.21 269.634 189.764 268.796C188.799 268.243 187.954 267.504 187.277 266.623C186.6 265.741 186.104 264.734 185.819 263.66C185.534 262.586 185.464 261.466 185.615 260.365C185.766 259.264 186.133 258.204 186.697 257.245Z" fill="white" fill-opacity="0.25"/>
<path d="M274.654 259.603H194.01V263.335H274.654V259.603Z" fill="white" fill-opacity="0.25"/>
<path d="M274.615 253.002C276.296 252.994 277.942 253.486 279.344 254.413C280.745 255.341 281.84 256.664 282.489 258.214C283.138 259.764 283.312 261.471 282.988 263.12C282.665 264.769 281.859 266.285 280.673 267.475C279.487 268.666 277.974 269.478 276.325 269.809C274.677 270.139 272.967 269.974 271.413 269.333C269.859 268.691 268.53 267.604 267.595 266.207C266.66 264.811 266.161 263.169 266.161 261.489C266.161 259.245 267.05 257.092 268.634 255.502C270.219 253.911 272.369 253.013 274.615 253.002Z" fill="white" fill-opacity="0.25"/>
<path d="M32.7619 259.603H-47.8818V263.335H32.7619V259.603Z" fill="white" fill-opacity="0.25"/>
<path d="M32.7225 253.002C34.4039 252.994 36.0497 253.486 37.4516 254.413C38.8534 255.341 39.948 256.664 40.5969 258.214C41.2457 259.764 41.4195 261.471 41.0963 263.12C40.773 264.769 39.9673 266.285 38.7811 267.475C37.5949 268.666 36.0817 269.478 34.4332 269.809C32.7846 270.139 31.075 269.974 29.5208 269.333C27.9666 268.691 26.6379 267.604 25.7029 266.207C24.7679 264.811 24.2688 263.169 24.2688 261.489C24.2688 259.245 25.1581 257.092 26.7424 255.502C28.3266 253.911 30.4768 253.013 32.7225 253.002Z" fill="white" fill-opacity="0.25"/>
<path d="M34.3157 260.528L31.0808 262.394L71.4027 332.179L74.6376 330.313L34.3157 260.528Z" fill="white" fill-opacity="0.25"/>
</g>
</g>
<defs>
<clipPath id="clip0_938_7927">
<rect width="1285" height="305" fill="white" transform="translate(-5 -4)"/>
</clipPath>
</defs>
</svg>
